<svg xmlns="http://www.w3.org/2000/svg" width="88" height="88" viewBox="0 0 88 88" fill="none">
<g clip-path="url(#clip0_360_10655)">
<path d="M88 0.000488281H0V88.0005H88V0.000488281Z" fill="white"/>
<path fill-rule="evenodd" clip-rule="evenodd" d="M21.8824 14.667H66.117C67.7252 14.667 69.113 14.6669 70.2618 14.7453C71.4711 14.8278 72.6807 15.0093 73.876 15.5043C76.571 16.6207 78.7127 18.7622 79.8289 21.4575C80.3239 22.6526 80.5054 23.8622 80.5882 25.0716C80.6663 26.2202 80.6663 27.608 80.6663 29.2164V58.7843C80.6663 60.3925 80.6663 61.7804 80.5882 62.9291C80.5054 64.1384 80.3239 65.348 79.8289 66.5434C78.7127 69.2384 76.571 71.3801 73.876 72.4962C72.6807 72.9912 71.4711 73.1727 70.2618 73.2556C69.113 73.3337 67.7252 73.3337 66.117 73.3337H21.8824C20.274 73.3337 18.8862 73.3337 17.7376 73.2556C16.5282 73.1727 15.3186 72.9912 14.1235 72.4962C11.4282 71.3801 9.28676 69.2384 8.17033 66.5434C7.67533 65.348 7.49383 64.1384 7.41129 62.9291C7.33294 61.7804 7.33297 60.3925 7.33301 58.7843V29.2164C7.33297 27.608 7.33294 26.2202 7.41129 25.0716C7.49383 23.8622 7.67533 22.6526 8.17033 21.4575C9.28676 18.7622 11.4282 16.6207 14.1235 15.5043C15.3186 15.0093 16.5282 14.8278 17.7376 14.7453C18.8862 14.6669 20.274 14.667 21.8824 14.667ZM15.8303 23.0188C17.1639 21.4948 19.4803 21.3404 21.0043 22.6739L41.5852 40.682C42.9675 41.8916 45.0318 41.8916 46.4142 40.682L66.9952 22.6739C68.519 21.3404 70.8356 21.4948 72.1688 23.0188C73.5024 24.5428 73.348 26.8593 71.8242 28.1928L51.2432 46.2011C47.0958 49.83 40.9035 49.83 36.7562 46.2011L16.1753 28.1928C14.6513 26.8593 14.4968 24.5428 15.8303 23.0188Z" fill="#341547"/>
</g>
<defs>
<clipPath id="clip0_360_10655">
<rect width="88" height="88" fill="white" transform="translate(0 0.000488281)"/>
</clipPath>
</defs>
</svg>