<svg xmlns="http://www.w3.org/2000/svg" width="74" height="74" viewBox="0 0 74 74" fill="none">
<g clip-path="url(#clip0_360_10643)">
<path fill-rule="evenodd" clip-rule="evenodd" d="M36.9893 0.000488281C16.5918 0.000488281 0 16.5969 0 37.0002C0 45.0918 2.60949 52.596 7.04543 58.687L2.4352 72.4338L16.6568 67.8886C22.5062 71.7604 29.4866 74.0005 37.0107 74.0005C57.4082 74.0005 74 57.4034 74 37.0008C74 16.5976 57.4082 0.0010999 37.0107 0.0010999L36.9893 0.000488281ZM26.6598 18.7947C25.9424 17.0764 25.3986 17.0113 24.3117 16.9671C23.9417 16.9457 23.5292 16.9242 23.072 16.9242C21.658 16.9242 20.1796 17.3373 19.2879 18.2508C18.201 19.3601 15.5043 21.9482 15.5043 27.2559C15.5043 32.5636 19.375 37.6969 19.8967 38.4152C20.4404 39.1322 27.4429 50.1822 38.3155 54.6857C46.8179 58.2094 49.3409 57.8828 51.2759 57.4697C54.1027 56.8607 57.6476 54.7717 58.5393 52.2492C59.431 49.7255 59.431 47.572 59.1695 47.1152C58.9087 46.6585 58.1907 46.3982 57.1038 45.8537C56.0169 45.3098 50.7322 42.6995 49.7318 42.3514C48.753 41.9819 47.8183 42.1126 47.0794 43.1568C46.0354 44.6142 45.0136 46.0937 44.1869 46.9851C43.5346 47.6812 42.4685 47.7684 41.5774 47.3982C40.3813 46.8985 37.0329 45.7229 32.9007 42.0469C29.7039 39.1979 27.5295 35.6527 26.8992 34.587C26.2683 33.4998 26.8341 32.8681 27.3336 32.2812C27.8774 31.6065 28.3991 31.1283 28.9429 30.4972C29.4866 29.8668 29.791 29.5402 30.139 28.8005C30.5091 28.0828 30.2476 27.3431 29.9868 26.7992C29.7259 26.2553 27.5515 20.9476 26.6598 18.7947Z" fill="#341547"/>
</g>
<defs>
<clipPath id="clip0_360_10643">
<rect width="74" height="74" fill="white" transform="translate(0 0.000488281)"/>
</clipPath>
</defs>
</svg>