<svg width="60" height="25" viewBox="0 0 60 25" fill="none" xmlns="http://www.w3.org/2000/svg">
<path d="M12.1814 3.19537C12.868 2.3239 13.3584 1.16195 13.2113 0C12.1814 0.0484147 10.9553 0.677805 10.2196 1.50085C9.58201 2.22707 8.99347 3.43744 9.14061 4.55098C10.3177 4.69622 11.4457 4.06683 12.1814 3.19537ZM13.2113 4.84147C11.5438 4.74464 10.1215 5.76134 9.33679 5.76134C8.55207 5.76134 7.32596 4.88988 6.00175 4.88988C4.28519 4.93829 2.71577 5.85817 1.83296 7.40744C0.0673593 10.4576 1.34252 14.9601 3.10812 17.4293C3.94188 18.6396 4.97182 19.9953 6.29602 19.9468C7.57118 19.8984 8.06163 19.1238 9.58201 19.1238C11.1024 19.1238 11.5438 19.9468 12.917 19.8984C14.2903 19.85 15.1731 18.6881 16.0068 17.4293C16.9877 16.0252 17.3801 14.6696 17.3801 14.6212C17.3311 14.5728 14.6826 13.6045 14.6826 10.6028C14.6336 8.08525 16.7425 6.87488 16.8406 6.82647C15.7126 5.08354 13.8489 4.88988 13.2113 4.84147Z" fill="white"/>
<path d="M27.6303 1.4043C31.2596 1.4043 33.7609 3.87344 33.7609 7.40771C33.7609 10.9904 31.2106 13.4595 27.5323 13.4595H23.5596V19.705H20.666V1.4043H27.6303ZM23.5596 11.0872H26.8456C29.3469 11.0872 30.7692 9.73162 30.7692 7.45613C30.7692 5.13222 29.3469 3.82503 26.8456 3.82503H23.5106V11.0872H23.5596ZM34.4966 15.9771C34.4966 13.6532 36.3112 12.2008 39.5482 12.0071L43.2756 11.8134V10.7967C43.2756 9.29588 42.2456 8.42442 40.5781 8.42442C38.9596 8.42442 37.9788 9.19905 37.7335 10.361H35.0851C35.2323 7.94027 37.3412 6.14893 40.6762 6.14893C43.9622 6.14893 46.0711 7.84344 46.0711 10.5547V19.7534H43.4227V17.5748H43.3737C42.5889 19.0756 40.8724 19.9955 39.1068 19.9955C36.3603 19.9955 34.4966 18.3494 34.4966 15.9771ZM43.2756 14.7667V13.7016L39.9405 13.8953C38.273 13.9921 37.3412 14.7183 37.3412 15.8803C37.3412 17.0422 38.3221 17.8169 39.7934 17.8169C41.7552 17.8169 43.2756 16.5097 43.2756 14.7667ZM48.5233 24.6917V22.4647C48.7195 22.5131 49.21 22.5131 49.4061 22.5131C50.6813 22.5131 51.3679 21.9805 51.8093 20.6249C51.8093 20.5765 52.0545 19.8019 52.0545 19.8019L47.1501 6.43942H50.1418L53.5749 17.3327H53.624L57.0571 6.43942H59.9998L54.9482 20.5281C53.7711 23.7719 52.4469 24.7886 49.6514 24.7886C49.4552 24.7402 48.7686 24.7402 48.5233 24.6917Z" fill="white"/>
</svg>
