<svg width="32" height="32" viewBox="0 0 32 32" fill="none" xmlns="http://www.w3.org/2000/svg">
<path d="M2.66602 11.4258C2.66602 9.83085 3.30919 8.85342 4.64019 8.1127L10.1192 5.06358C12.9901 3.46586 14.4256 2.66699 15.9993 2.66699C17.5731 2.66699 19.0085 3.46586 21.8795 5.06358L27.3585 8.1127C28.6895 8.85342 29.3327 9.83086 29.3327 11.4258C29.3327 11.8582 29.3327 12.0745 29.2855 12.2522C29.0373 13.1863 28.1909 13.3337 27.3736 13.3337H4.62506C3.80771 13.3337 2.96138 13.1862 2.71324 12.2522C2.66602 12.0745 2.66602 11.8582 2.66602 11.4258Z" stroke="white" stroke-width="2"/>
<path d="M15.9941 9.33301H16.0061" stroke="white" stroke-width="2.66667" stroke-linecap="round" stroke-linejoin="round"/>
<path d="M5.33398 13.333V24.6663M10.6673 13.333V24.6663" stroke="white" stroke-width="2"/>
<path d="M21.334 13.333V24.6663M26.6673 13.333V24.6663" stroke="white" stroke-width="2"/>
<path d="M25.3327 24.667H6.66602C4.45688 24.667 2.66602 26.4578 2.66602 28.667C2.66602 29.0351 2.9645 29.3337 3.33268 29.3337H28.666C29.0341 29.3337 29.3327 29.0351 29.3327 28.667C29.3327 26.4578 27.5419 24.667 25.3327 24.667Z" stroke="white" stroke-width="2"/>
</svg>
