<svg width="85" height="107" viewBox="0 0 85 107" fill="none" xmlns="http://www.w3.org/2000/svg">
<g clip-path="url(#clip0_2917_2647)">
<path d="M85 76.1616V9.5355C85 4.27705 80.721 0 75.4625 0H9.53747C4.27903 0 0 4.27903 0 9.5355V84.0008V96.8932C0 102.154 4.27705 106.433 9.5355 106.433H75.4606C80.721 106.433 85 102.154 85 96.8932V76.1754C85 76.1754 85 76.1655 85 76.1616Z" fill="white"/>
<path d="M9.28624 70.3444H75.7109C77.0457 70.3444 78.27 70.8203 79.2198 71.6082V9.74299C79.2198 7.6716 77.5335 5.99316 75.4542 5.99316H9.54492C7.46563 5.99316 5.7793 7.6716 5.7793 9.74299V71.6082C6.72909 70.8203 7.95337 70.3444 9.28822 70.3444" fill="#005E4B"/>
<path d="M68.9118 13.8538C68.9118 13.2397 68.4063 12.7579 67.7626 12.7579C67.1189 12.7579 66.6133 13.2397 66.6133 13.8538C66.6133 14.4679 67.107 14.9497 67.7626 14.9497C68.4182 14.9497 68.9118 14.4798 68.9118 13.8538ZM63.993 22.9569H71.7355V20.378C71.7355 19.6809 71.6013 19.2051 71.2972 18.8338C70.9635 18.4271 70.4264 18.2197 69.6977 18.2197H63.993V22.9569ZM49.0806 28.2568C48.7094 28.2568 48.346 28.2074 47.9649 28.1028L47.7517 28.0455L48.2098 26.375L48.423 26.4302C48.7212 26.5073 48.8298 26.5191 49.0332 26.5191C49.7934 26.5191 50.0462 26.2644 50.0462 24.7498V15.4631H51.7918V22.9588H62.2474V15.4631H63.993V16.482H69.6977C71.0306 16.482 71.9073 16.8335 72.6301 17.6589C73.179 18.277 73.4831 19.2426 73.4831 20.378V24.6945H51.6002L51.6061 24.7873C51.6713 26.1044 51.4265 27.0601 50.8815 27.6288C50.2812 28.2548 49.4716 28.2548 49.0826 28.2548L49.0806 28.2568ZM46.2233 27.0167C46.2233 26.4105 45.7257 25.9366 45.0899 25.9366C44.454 25.9366 43.9742 26.4105 43.9742 27.0167C43.9742 27.6229 44.454 28.0791 45.0899 28.0791C45.7257 28.0791 46.2233 27.6328 46.2233 27.0167ZM43.0678 27.0167C43.0678 26.4105 42.5781 25.9366 41.9522 25.9366C41.3262 25.9366 40.8345 26.4105 40.8345 27.0167C40.8345 27.6229 41.3144 28.0791 41.9522 28.0791C42.59 28.0791 43.0678 27.6229 43.0678 27.0167ZM33.25 26.9831C33.25 26.3789 32.7445 25.903 32.1007 25.903C31.457 25.903 30.9515 26.3769 30.9515 26.9831C30.9515 27.5893 31.4452 28.0791 32.1007 28.0791C32.7563 28.0791 33.25 27.6071 33.25 26.9831ZM16.4853 12.3807C16.4853 11.7844 15.9956 11.3164 15.3697 11.3164C14.7437 11.3164 14.254 11.7824 14.254 12.3807C14.254 12.979 14.7338 13.4589 15.3697 13.4589C16.0055 13.4589 16.4853 12.9948 16.4853 12.3807ZM19.6408 12.3807C19.6408 11.7844 19.1432 11.3164 18.5074 11.3164C17.8715 11.3164 17.3917 11.7824 17.3917 12.3807C17.3917 12.979 17.8715 13.4589 18.5074 13.4589C19.1432 13.4589 19.6408 12.9948 19.6408 12.3807ZM16.6058 17.1988C15.0162 17.1988 13.3003 18.3027 13.3003 20.0857C13.3003 22.0683 14.9609 22.9569 16.6058 22.9569H17.6681V17.1988H16.6058ZM16.8408 24.6945C12.9389 24.6945 11.5547 22.2124 11.5547 20.0857C11.5547 17.3627 13.8532 15.4612 17.1429 15.4612H17.6681V14.6516H19.4137V22.9549H31.2299V15.4592H32.9755V22.9549H43.99V15.4592H45.7V24.6926H16.8388L16.8408 24.6945Z" fill="white"/>
<path d="M73.4816 30.5498H71.736V44.1214H73.4816V30.5498ZM17.6311 36.6257V42.3838H16.5687C14.9238 42.3838 13.2632 41.4952 13.2632 39.5127C13.2632 37.7296 14.9791 36.6257 16.5687 36.6257H17.6311ZM58.3697 36.6257V42.3838H55.8046L55.7849 42.3719C54.6416 41.7045 53.986 40.656 53.986 39.4969C53.986 37.6328 55.623 36.6277 57.1612 36.6277H58.3697V36.6257ZM34.2515 40.6777C34.2515 42.4805 32.8653 43.8391 31.025 43.8391C29.2814 43.8391 27.9149 42.4489 27.9149 40.6777C27.9149 38.9064 29.2814 37.4827 31.025 37.4827C32.895 37.4827 34.2515 38.8255 34.2515 40.6777ZM34.5912 44.1471L34.6168 44.1214H68.4561V30.5498H66.7105V42.3838H60.1153V34.8881H57.6983C54.3829 34.8881 52.2404 36.6968 52.2404 39.4969C52.2404 40.5513 52.5761 41.4735 53.2356 42.2376L53.362 42.3838H45.0587V34.8881H43.3131V42.3838H35.7009L35.7404 42.2673C35.9102 41.7736 35.9951 41.2444 35.9951 40.6955C35.9951 37.8737 33.8586 35.747 31.025 35.747C28.1914 35.747 26.1674 37.9211 26.1674 40.6955C26.1674 41.2247 26.2523 41.7558 26.4182 42.2692L26.4557 42.3857H19.3747V34.0804H17.6291V34.89H17.1038C13.8141 34.89 11.5156 36.7916 11.5156 39.5146C11.5156 41.742 12.9848 44.1234 17.1038 44.1234H27.5299L27.5556 44.1491C28.4738 45.0831 29.7059 45.5965 31.023 45.5965C32.3401 45.5965 33.6789 45.0693 34.5892 44.1491M59.6591 32.4395C59.6591 31.8432 59.1615 31.3772 58.5257 31.3772C57.8899 31.3772 57.41 31.8432 57.41 32.4395C57.41 33.0359 57.8899 33.5177 58.5257 33.5177C59.1615 33.5177 59.6591 33.0536 59.6591 32.4395ZM56.5056 32.4395C56.5056 31.8432 56.014 31.3772 55.388 31.3772C54.762 31.3772 54.2723 31.8432 54.2723 32.4395C54.2723 33.0359 54.7522 33.5177 55.388 33.5177C56.0238 33.5177 56.5056 33.0536 56.5056 32.4395ZM46.7648 46.4416C46.7648 45.8354 46.2672 45.3615 45.6313 45.3615C44.9955 45.3615 44.5157 45.8354 44.5157 46.4416C44.5157 47.0479 44.9955 47.504 45.6313 47.504C46.2672 47.504 46.7648 47.0577 46.7648 46.4416ZM43.6093 46.4416C43.6093 45.8354 43.1196 45.3615 42.4937 45.3615C41.8677 45.3615 41.378 45.8354 41.378 46.4416C41.378 47.0479 41.8578 47.504 42.4937 47.504C43.1295 47.504 43.6093 47.0479 43.6093 46.4416ZM16.4483 31.8076C16.4483 31.2113 15.9585 30.7433 15.3326 30.7433C14.7066 30.7433 14.2169 31.2113 14.2169 31.8076C14.2169 32.404 14.6968 32.8858 15.3326 32.8858C15.9684 32.8858 16.4483 32.4218 16.4483 31.8076ZM18.4703 32.8858C17.8325 32.8858 17.3546 32.4218 17.3546 31.8076C17.3546 31.1935 17.8443 30.7433 18.4703 30.7433C19.0962 30.7433 19.6037 31.2113 19.6037 31.8076C19.6037 32.404 19.116 32.8858 18.4703 32.8858Z" fill="white"/>
<path d="M73.4811 49.9736H71.7356V63.5453H73.4811V49.9736ZM40.4258 57.0705H45.9449C46.6716 57.0705 47.2106 57.2778 47.5443 57.6846C47.8465 58.0538 47.9827 58.5297 47.9827 59.2287V61.8076H40.4278V57.0705H40.4258ZM61.0054 60.1035C61.0054 61.9063 59.6192 63.2649 57.7808 63.2649C55.9425 63.2649 54.6708 61.8767 54.6708 60.1035C54.6708 58.3303 56.0372 56.9105 57.7808 56.9105C59.6508 56.9105 61.0054 58.2533 61.0054 60.1035ZM61.3451 63.5729L61.3707 63.5473H68.4557V49.9756H66.7101V61.8096H62.4548L62.4943 61.6931C62.6641 61.1994 62.749 60.6702 62.749 60.1213C62.749 57.2995 60.6125 55.1728 57.7789 55.1728C54.9453 55.1728 52.9232 57.3469 52.9232 60.1213C52.9232 60.6524 53.0082 61.1816 53.174 61.695L53.2115 61.8096H49.7283V59.2307C49.7283 58.0933 49.4262 57.1277 48.8772 56.5116C48.1545 55.6862 47.2778 55.3348 45.9449 55.3348H40.4258V54.3139H38.6802V61.8096H34.4782V49.9756H32.7326V63.5473H54.2857L54.3114 63.5729C55.2296 64.5069 56.4618 65.0203 57.7789 65.0203C59.0959 65.0203 60.4347 64.4931 61.3451 63.5729ZM45.157 52.7045C45.157 52.0904 44.6515 51.6086 44.0078 51.6086C43.3641 51.6086 42.8585 52.0904 42.8585 52.7045C42.8585 53.3187 43.3522 53.8005 44.0078 53.8005C44.6634 53.8005 45.157 53.3285 45.157 52.7045ZM28.0547 51.8456C28.0547 51.2315 27.5492 50.7497 26.9055 50.7497C26.2618 50.7497 25.7563 51.2315 25.7563 51.8456C25.7563 52.4597 26.2499 52.9415 26.9055 52.9415C27.5611 52.9415 28.0547 52.4696 28.0547 51.8456ZM17.6662 56.0496V61.8056H16.6038C14.959 61.8056 13.2983 60.919 13.2983 58.9365C13.2983 57.1534 15.0143 56.0496 16.6038 56.0496H17.6662ZM28.343 56.0496V61.8056H25.778L25.7582 61.7938C24.6149 61.1264 23.9574 60.0778 23.9574 58.9187C23.9574 57.5266 25.0711 56.0496 27.1346 56.0496H28.343ZM30.0886 63.5453V54.3119H27.6717C24.3562 54.3119 22.2118 56.1207 22.2118 58.9207C22.2118 59.9751 22.5475 60.8973 23.207 61.6615L23.3334 61.8076H19.4118V53.5043H17.6662V54.3139H17.1409C13.8512 54.3139 11.5527 56.2154 11.5527 58.9385C11.5527 61.1658 13.0199 63.5473 17.1409 63.5473H30.0886V63.5453ZM16.4834 51.2315C16.4834 50.6351 15.9937 50.1691 15.3677 50.1691C14.7418 50.1691 14.2521 50.6351 14.2521 51.2315C14.2521 51.8278 14.7319 52.3116 15.3677 52.3116C16.0036 52.3116 16.4834 51.8476 16.4834 51.2315ZM18.5054 52.3116C17.8676 52.3116 17.3878 51.8476 17.3878 51.2315C17.3878 50.6154 17.8795 50.1691 18.5054 50.1691C19.1314 50.1691 19.6389 50.6351 19.6389 51.2315C19.6389 51.8278 19.1511 52.3116 18.5054 52.3116Z" fill="white"/>
<path d="M75.4641 100.439H9.53507C7.45973 100.439 5.77734 98.7567 5.77734 96.6814V76.0761C5.77734 74.0007 7.45973 72.3184 9.53507 72.3184H75.4621C77.5374 72.3184 79.2198 74.0007 79.2198 76.0761V96.6814C79.2198 98.7567 77.5374 100.439 75.4621 100.439" fill="#D19E2C"/>
<path d="M21.9053 91.6046L26.3482 76.6191H32.5782C30.5108 82.8294 26.0777 96.1384 26.0264 96.1384H17.7823C17.7329 96.1384 13.2979 82.8294 11.2305 76.6191H17.4604L21.9034 91.6046H21.9053Z" fill="white"/>
<path d="M73.7561 76.6211H53.1094L54.6674 81.0976H61.2666V96.1344H67.1865V81.0976H73.768L73.7561 76.6211Z" fill="white"/>
<path d="M52.8243 83.7699L52.1944 82.3955C48.954 84.5163 43.581 90.9101 43.581 90.9101L41.6103 88.6867L40.8955 91.0977L40.8047 91.4512C41.555 92.5273 43.6126 96.137 43.6126 96.137C48.3537 87.5039 52.8262 83.7699 52.8262 83.7699" fill="#005E4B"/>
<path d="M42.8604 81.1529L44.8884 87.995C46.1245 86.6305 47.7535 84.9106 49.3155 83.4987C48.028 79.6541 47.0052 76.6211 46.9815 76.6211H38.7374C38.688 76.6211 34.253 89.9301 32.1855 96.1403H38.4155L42.8584 81.1548L42.8604 81.1529Z" fill="white"/>
<path d="M46.4336 93.2026L47.3044 96.1388H53.5344C52.7741 93.8562 51.696 90.6138 50.6317 87.4268C49.4548 88.8208 47.9955 90.7343 46.4336 93.2006" fill="white"/>
</g>
<defs>
<clipPath id="clip0_2917_2647">
<rect width="85" height="106.433" fill="white"/>
</clipPath>
</defs>
</svg>
