<svg width="191" height="118" viewBox="0 0 191 118" fill="none" xmlns="http://www.w3.org/2000/svg">
<g clip-path="url(#clip0_2917_2617)">
<path d="M13.1019 97.5684L5.83594 117.363H9.31963L11.4596 111.292H19.6339L21.7738 117.363H25.2824L17.9418 97.5684H13.1019ZM12.2186 109.04L15.5405 99.783L18.8749 109.04H12.2186Z" fill="white"/>
<path d="M27.7578 117.363H31.1046V96.6104L27.7578 97.1205V117.363Z" fill="white"/>
<path d="M51.956 104.225H47.365L46.7304 105.556C45.7973 104.697 44.5407 104.225 43.0228 104.225H35.0352V117.313H38.3944V106.501H41.9279C44.1923 106.501 45.0508 108.169 45.0508 110.483V117.363H48.4598V110.334C48.4598 108.791 48.1115 107.484 47.4769 106.477H50.8486C53.113 106.477 53.9964 108.169 53.9964 110.483V117.363H57.3806V110.334C57.3806 106.551 55.3401 104.237 51.956 104.237" fill="white"/>
<path d="M67.6948 103.951C63.0291 103.976 59.9062 106.9 59.9062 110.757C59.9062 114.614 63.0291 117.587 67.7197 117.612C72.3605 117.637 75.4833 114.738 75.4833 110.757C75.4833 106.775 72.3853 103.951 67.6948 103.951ZM67.6948 115.348C65.1442 115.348 63.3029 113.457 63.3029 110.782C63.3029 108.107 65.2189 106.191 67.6948 106.191C70.1707 106.191 72.1116 108.057 72.1116 110.757C72.1116 113.457 70.2454 115.348 67.6948 115.348Z" fill="white"/>
<path d="M91.123 104.25H86.868L82.9364 108.741H81.8664V96.6104L78.5195 97.1205V117.363H81.8664V111.005H83.3096L88.025 117.363H92.2055L86.4076 109.624L91.123 104.25Z" fill="white"/>
<path d="M94.209 117.363H97.5558V96.6104L94.209 97.1205V117.363Z" fill="white"/>
<path d="M101.488 117.363H104.848V104.025L101.488 104.535V117.363Z" fill="white"/>
<path d="M103.254 98.9619C102.296 98.9619 101.537 99.7457 101.537 100.679C101.537 101.612 102.296 102.396 103.254 102.396C104.212 102.396 104.971 101.637 104.971 100.679C104.971 99.7209 104.187 98.9619 103.254 98.9619Z" fill="white"/>
<path d="M109.126 101.811V104.362H107.086V106.626H109.126V117.364H112.498V106.626H116.89V104.362H112.498V102.048C112.498 100.605 113.207 99.3728 115.049 99.3728C115.633 99.348 116.94 99.3728 117.699 99.3728V97.1582H114.215C111.515 97.1582 109.126 98.5641 109.126 101.824" fill="white"/>
<path d="M134.147 97.2695C129.033 97.2695 123.584 100.392 123.584 107.434C123.584 114.476 129.033 117.574 134.197 117.574C139.36 117.574 144.71 114.526 144.71 107.434C144.71 100.343 139.261 97.2695 134.147 97.2695ZM134.147 115.372C129.506 115.372 126.956 111.665 126.956 107.434C126.956 103.204 129.506 99.4966 134.147 99.4966C138.788 99.4966 141.338 103.204 141.338 107.434C141.338 111.665 138.788 115.372 134.147 115.372Z" fill="white"/>
<path d="M157.015 115.099H153.942C151.652 115.099 150.632 113.718 150.632 111.391V103.976L147.248 104.66V111.541C147.248 115.323 149.438 117.363 152.946 117.363H160.362V103.951L157.002 104.611V115.099H157.015Z" fill="white"/>
<path d="M174.147 97.1207V104.287H169.818C166.01 104.287 163.41 107.087 163.41 110.794C163.41 114.502 166.06 117.376 169.892 117.376H173.65L174.334 115.945C174.682 116.828 175.516 117.376 176.549 117.376H177.507V96.623L174.147 97.1207ZM174.147 114.975V115.099H170.788C168.474 115.099 166.782 113.407 166.782 110.807C166.782 108.206 168.524 106.514 170.713 106.514H174.147V114.962V114.975Z" fill="white"/>
<path d="M12.1307 80.374C12.1307 75.8701 9.64237 73.9043 5.11357 73.9043H1.59255V76.4797H4.16799C6.94251 76.4797 8.29866 77.4378 8.29866 79.8888V84.4176H0V87.0179H12.1307V80.374Z" fill="white"/>
<path d="M65.5814 84.4178H58.8504V65.4441L55.0059 66.1657V84.4178H51.2484C51.2484 84.4178 51.236 84.4178 51.2235 84.4178C51.2235 84.4178 51.2111 84.4178 51.1987 84.4178H31.3789C31.3789 84.4178 31.3789 84.4178 31.3665 84.4178C31.354 84.4178 31.3665 84.4178 31.354 84.4178H29.0772V73.9294H22.4333C18.5017 73.9294 14.6074 76.0445 14.6074 80.6604C14.6074 84.592 17.6681 87.0181 21.4504 87.0181H25.1705C24.8843 89.7304 23.4038 90.7382 20.4302 90.7382H18.2404V93.1892H21.0647C25.7179 93.1892 28.4551 91.5718 28.9777 87.0057H31.3416C31.3416 87.0057 31.3416 87.0057 31.354 87.0057C31.354 87.0057 31.354 87.0057 31.3665 87.0057H51.1862C51.1862 87.0057 51.1987 87.0057 51.2111 87.0057C51.2111 87.0057 51.2236 87.0057 51.236 87.0057H54.9561C56.25 87.0057 57.2951 86.5204 57.9919 85.6744L58.9126 87.0057H69.3885V65.4316L65.544 66.1533V84.4053L65.5814 84.4178ZM25.2451 84.4178H22.2716C20.1689 84.4178 18.4644 82.9994 18.4644 80.5235C18.4644 78.0476 20.3182 76.5421 22.4209 76.5421H25.2451V84.4302V84.4178Z" fill="white"/>
<path d="M103.79 70.9931C104.86 70.9931 105.756 70.1222 105.756 69.0273C105.756 67.9324 104.86 67.0615 103.79 67.0615C102.72 67.0615 101.824 67.9573 101.824 69.0273C101.824 70.0973 102.695 70.9931 103.79 70.9931Z" fill="white"/>
<path d="M137.954 69.5498C139.024 69.5498 139.92 68.6788 139.92 67.584C139.92 66.4891 139.024 65.6182 137.954 65.6182C136.884 65.6182 135.988 66.514 135.988 67.584C135.988 68.654 136.859 69.5498 137.954 69.5498Z" fill="white"/>
<path d="M181.824 65.4443L177.98 66.166V84.418H171.56V80.8099C171.56 76.2189 167.753 74.0292 163.796 74.0292H158.882L157.24 80.1256C156.543 82.9001 154.577 84.4305 152.002 84.4305H149.7L148.543 79.3169C147.386 74.2904 145.768 72.4491 140.456 72.4491H129.606V75.0245H139.709C143.404 75.0245 144.076 76.2314 144.711 78.869L146.067 84.4429H121.333V65.4692L117.488 66.1908V84.4429H111.715H109.55V73.9545H102.931C99.0369 73.9545 95.1053 75.8954 95.1053 80.051C95.1053 82.0168 96.0011 83.4849 97.3324 84.4429H84.8035C82.1161 84.4429 81.3074 83.46 81.3074 80.6855V77.9981L77.4629 77.9483V79.9017C77.4629 84.9904 79.889 87.0308 84.3307 87.0308H111.703H117.438C118.745 87.0308 119.777 86.5456 120.474 85.6995L121.395 87.0308H153.407C157.824 87.0308 160.051 84.8411 161.084 80.6233L162.042 76.6419H163.809C165.862 76.6419 167.703 78.0603 167.703 80.5984V84.4429H159.504L159.429 87.0432H181.812V65.4692L181.824 65.4443ZM105.693 84.418H102.72C100.617 84.418 98.9125 82.9997 98.9125 80.5238C98.9125 77.8986 100.766 76.5424 102.869 76.5424H105.693V84.4305V84.418Z" fill="white"/>
<path d="M190.16 65.4443L186.328 66.1908V87.0184H190.16V65.4443Z" fill="white"/>
<path d="M32.7344 85.6491H34.1154L35.0734 80.2494C36.0314 74.9368 37.3752 72.9834 41.7795 72.9834H49.3566V75.6957H43.596C40.5354 75.6957 39.9879 76.9772 39.4529 79.7517L38.3332 85.6491H55.7765" fill="white"/>
<path d="M84.343 43.1483C91.0616 42.9866 103.267 43.7206 110.396 42.1032C131.584 37.2882 130.937 13.6489 130.328 11.3223C124.741 18.3519 111.852 15.5525 96.6852 17.2943C84.3803 18.7002 83.5716 32.6972 83.5716 32.6972C85.7116 25.4437 100.156 26.0782 112.014 26.2648C122.39 26.4266 125.637 23.2042 125.637 23.2042C122.129 37.4997 98.2653 34.3271 87.6152 34.352C72.9588 34.3893 66.3398 39.1172 62.6197 47.3785C60.8778 51.2355 61.164 53.1266 61.164 53.1266C62.0847 50.1033 70.4207 43.4718 84.3306 43.1359" fill="#F1B11D"/>
<path d="M116.616 9.39328C119.54 9.34352 120.523 9.45549 122.762 7.7883C126.408 5.07599 127.092 -0.0126953 127.092 -0.0126953C124.367 0.547184 120.473 0.273465 118.022 0.621835C111.365 1.57985 109.748 9.89095 109.748 9.89095C111.552 9.33107 113.941 9.43061 116.616 9.38084" fill="#F1B11D"/>
</g>
<defs>
<clipPath id="clip0_2917_2617">
<rect width="190.16" height="117.612" fill="white"/>
</clipPath>
</defs>
</svg>
