<svg width="62" height="21" viewBox="0 0 62 21" fill="none" xmlns="http://www.w3.org/2000/svg">
<path d="M26.2632 11.6787H0.238281V20.2372H26.2632V11.6787Z" fill="#84B740"/>
<path d="M26.2632 0H0.238281V8.56608H26.2632V0Z" fill="#259BD6"/>
<path d="M52.2886 18.4975L52.1727 18.5204C51.7709 18.5967 51.624 18.6271 51.3304 18.6271C50.6503 18.6271 49.8467 18.2839 49.8467 16.6668C49.8467 15.8353 49.9857 14.7293 51.253 14.7293H51.2608C51.4771 14.7445 51.7244 14.7675 52.188 14.9047L52.2885 14.9352L52.2886 18.4975ZM52.4972 10.4348L52.2886 10.473V13.4631L52.1032 13.4096L52.0491 13.3944C51.8405 13.3334 51.3614 13.1961 50.8978 13.1961C48.3633 13.1961 47.8301 15.0879 47.8301 16.6744C47.8301 18.8484 49.0664 20.0993 51.2223 20.0993C52.1341 20.0993 52.8064 20.0078 53.4864 19.7866C54.1123 19.5884 54.3364 19.306 54.3364 18.7034V10.1221C53.7336 10.2288 53.1077 10.3356 52.4972 10.4348Z" fill="white"/>
<path d="M59.8227 18.5512L59.7146 18.5817L59.3282 18.6809C58.9651 18.7724 58.6405 18.8258 58.3932 18.8258C57.7982 18.8258 57.4427 18.5359 57.4427 18.0402C57.4427 17.7198 57.5896 17.1782 58.5631 17.1782H59.8226V18.5512H59.8227ZM58.9341 13.1582C58.1537 13.1582 57.35 13.2955 56.3532 13.6006L55.7041 13.7913L55.9205 15.2405L56.5542 15.0346C57.2188 14.8209 58.0455 14.6837 58.6638 14.6837C58.942 14.6837 59.792 14.6837 59.792 15.5914V15.9881H58.6098C56.4538 15.9881 55.457 16.667 55.457 18.1239C55.457 19.3672 56.3766 20.1147 57.9219 20.1147C58.401 20.1147 59.0656 20.0232 59.6373 19.8858L59.6682 19.8781L59.6991 19.8858L59.8923 19.9163C60.495 20.0231 61.1209 20.13 61.7313 20.2443V15.4844C61.7313 13.9438 60.7887 13.1582 58.9341 13.1582Z" fill="white"/>
<path d="M44.8091 18.5512L44.7009 18.5817L44.3146 18.6809C43.9514 18.7724 43.6345 18.8258 43.3795 18.8258C42.7845 18.8258 42.4291 18.5359 42.4291 18.0402C42.4291 17.7198 42.5759 17.1782 43.5418 17.1782H44.8013V18.5512H44.8091ZM43.9282 13.1582C43.14 13.1582 42.3442 13.2955 41.3473 13.6006L40.6982 13.7913L40.9145 15.2405L41.5482 15.0346C42.2128 14.8209 43.0395 14.6837 43.6578 14.6837C43.936 14.6837 44.786 14.6837 44.786 15.5914V15.9881H43.6037C41.4478 15.9881 40.4434 16.667 40.4434 18.1239C40.4434 19.3672 41.3629 20.1147 42.9161 20.1147C43.3951 20.1147 44.0597 20.0232 44.6315 19.8858L44.6624 19.8781L44.6933 19.8858L44.8786 19.9163C45.4891 20.0231 46.1072 20.13 46.7177 20.252V15.4921C46.7254 13.9363 45.7828 13.1582 43.9282 13.1582Z" fill="white"/>
<path d="M36.6718 13.1737C35.6905 13.1737 34.8792 13.4941 34.5779 13.6314L34.5006 13.6696L34.431 13.6161C34.0138 13.3187 33.4033 13.166 32.5533 13.166C31.8038 13.166 31.1007 13.2728 30.3356 13.494C29.6788 13.6922 29.4238 14.0051 29.4238 14.5924V20.0312H31.4793V15.0043L31.5797 14.9738C31.997 14.8366 32.2443 14.8136 32.4839 14.8136C33.0789 14.8136 33.3802 15.1263 33.3802 15.7367V20.0387H35.4047V15.6527C35.4047 15.3933 35.3506 15.2408 35.3429 15.2103L35.2733 15.0806L35.4124 15.0196C35.7215 14.8823 36.0615 14.8136 36.4169 14.8136C36.8263 14.8136 37.3132 14.9738 37.3132 15.7367V20.0387H39.3299V15.5384C39.3299 13.9441 38.4645 13.1737 36.6718 13.1737Z" fill="white"/>
<path d="M58.3076 5.58354C58.0062 5.58354 57.5039 5.55304 57.1099 5.47679L56.994 5.45384V2.51705C56.994 2.27291 56.9476 2.1204 56.9398 2.09746L56.878 1.97545L57.0094 1.922C57.0403 1.90675 57.0712 1.89906 57.1099 1.88381L57.1331 1.86856C57.1795 1.85331 57.2258 1.83806 57.2722 1.82281C57.2954 1.81511 57.3109 1.80756 57.3263 1.80756C57.7823 1.68555 58.1996 1.7008 58.3849 1.68555H58.3927C59.6522 1.68555 59.799 2.79157 59.799 3.62307C59.7912 5.24033 58.9798 5.58354 58.3076 5.58354ZM58.2999 0C58.2845 0 58.2612 0 58.2458 0C57.0636 0 55.8503 0.320401 55.4176 0.945818C55.1857 1.25097 55.0545 1.63237 55.0467 2.08234V5.11063C55.0467 5.37003 54.9925 5.46909 54.9849 5.49204L54.9153 5.62174H51.1831V3.51645H51.1754C51.129 1.29672 49.8 0.0762543 47.8759 0.0762543H47.6518H45.9982C45.921 0.61786 45.8592 0.999265 45.7819 1.54087H47.6518C48.6332 1.54087 49.151 2.36468 49.151 3.6309V5.75144L49.0196 5.68274C48.9963 5.67505 48.8342 5.62174 48.5791 5.62174H45.3491C45.2873 6.02595 45.21 6.55231 45.125 7.07866H55.0543C55.3944 7.00996 55.7884 6.94896 56.1284 6.89565C56.6307 7.1398 57.5656 7.26936 58.2069 7.26936C60.3629 7.26936 61.7615 5.84294 61.7615 3.64615C61.7538 1.47217 60.4017 0.0457524 58.2999 0Z" fill="white"/>
<path d="M40.8911 7.97121H40.9838C43.1397 7.97121 44.1442 7.2694 44.1442 5.53796C44.1442 4.29455 43.2246 3.30298 41.6793 3.30298H39.6935C39.0985 3.30298 38.743 2.96733 38.743 2.40292C38.743 2.02151 38.8898 1.5486 39.8634 1.5486H44.206C44.2987 0.991744 44.345 0.640841 44.4301 0.0839844H39.9174C37.8156 0.0839844 36.757 0.95355 36.757 2.40292C36.757 3.83689 37.6766 4.58445 39.2219 4.58445H41.2078C41.8028 4.58445 42.1582 5.0498 42.1582 5.53796C42.1582 5.85837 42.0114 6.52198 41.0455 6.52198H40.7132L34.3538 6.50673H33.1947C32.2133 6.50673 31.5256 5.95756 31.5256 4.68365V3.80639C31.5256 2.47917 32.0588 1.65536 33.1947 1.65536H35.08C35.1651 1.09094 35.2191 0.732346 35.2964 0.198434H32.9473H32.7233C30.7992 0.198434 29.4702 1.47235 29.4238 3.69194V3.77589V4.68365C29.4702 6.90338 30.7992 7.96365 32.7233 7.96365H32.9473H34.601L38.0472 7.97134H40.1027L40.8911 7.97121Z" fill="white"/>
</svg>
