<svg width="59" height="43" viewBox="0 0 59 43" fill="none" xmlns="http://www.w3.org/2000/svg">
<path d="M35.6628 10.6426H23.5117V32.4785H35.6628V10.6426Z" fill="#FF5F00"/>
<path d="M24.2839 21.5608C24.282 19.4579 24.7585 17.382 25.6774 15.4905C26.5964 13.5989 27.9336 11.9412 29.5879 10.6429C27.5393 9.03261 25.079 8.03122 22.4881 7.75314C19.8973 7.47506 17.2805 7.93152 14.9368 9.07035C12.5931 10.2092 10.6171 11.9844 9.23469 14.1932C7.85225 16.402 7.11914 18.9551 7.11914 21.5608C7.11914 24.1665 7.85225 26.7197 9.23469 28.9285C10.6171 31.1372 12.5931 32.9125 14.9368 34.0513C17.2805 35.1901 19.8973 35.6466 22.4881 35.3685C25.079 35.0904 27.5393 34.089 29.5879 32.4788C27.9336 31.1804 26.5964 29.5227 25.6775 27.6312C24.7585 25.7396 24.282 23.6638 24.2839 21.5608Z" fill="#EB001B"/>
<path d="M52.056 21.5608C52.0561 24.1665 51.323 26.7196 49.9407 28.9284C48.5583 31.1372 46.5824 32.9124 44.2387 34.0513C41.8951 35.1901 39.2783 35.6466 36.6875 35.3685C34.0967 35.0904 31.6365 34.089 29.5879 32.4788C31.2407 31.1791 32.5769 29.5211 33.4957 27.6299C34.4145 25.7386 34.8919 23.6634 34.8919 21.5608C34.8919 19.4582 34.4145 17.383 33.4957 15.4918C32.5769 13.6005 31.2407 11.9425 29.5879 10.6429C31.6365 9.03261 34.0967 8.03121 36.6875 7.75314C39.2783 7.47506 41.8951 7.93154 44.2387 9.07038C46.5824 10.2092 48.5583 11.9845 49.9407 14.1932C51.323 16.402 52.0561 18.9551 52.056 21.5608Z" fill="#F79E1B"/>
<path d="M50.7319 30.166V29.7189H50.9122V29.6278H50.4531V29.7189H50.6335V30.166H50.7319ZM51.6232 30.166V29.627H51.4825L51.3207 29.9977L51.1587 29.627H51.0179V30.166H51.1173V29.7594L51.2691 30.1099H51.3721L51.5239 29.7585V30.166H51.6232Z" fill="#F79E1B"/>
</svg>
