<svg width="60" height="20" viewBox="0 0 60 20" fill="none" xmlns="http://www.w3.org/2000/svg">
<path fill-rule="evenodd" clip-rule="evenodd" d="M31.0041 6.72278C30.977 9.35564 33.352 10.8349 35.1434 11.7035C36.9891 12.5992 37.6134 13.1828 37.5998 13.9835C37.5863 15.2185 36.1341 15.7478 34.7634 15.7749C32.3884 15.8156 31.0041 15.1371 29.9048 14.6214L29.0498 18.6385C30.1491 19.1406 32.1984 19.5885 34.3155 19.6156C39.2963 19.6156 42.5398 17.1592 42.567 13.3456C42.5805 8.51421 35.8763 8.24278 35.9305 6.08492C35.9441 5.43349 36.5684 4.72778 37.9391 4.55135C38.6177 4.45635 40.4905 4.38849 42.6077 5.36564L43.4355 1.48421C42.2955 1.06349 40.8298 0.669922 38.9977 0.669922C34.3291 0.669922 31.0313 3.16707 31.0041 6.72278ZM51.4427 1.00921C50.5334 1.00921 49.7734 1.53849 49.4205 2.35278L42.3091 19.3171H47.2763L48.267 16.5892H54.347L54.917 19.3171H59.3141L55.487 1.00921H51.4427ZM52.1348 5.96278L53.5734 12.8435H49.6377L52.1348 5.96278ZM24.9784 1.00921L21.0563 19.3171H25.7927L29.7148 1.00921H24.9784ZM17.9755 1.00921L13.0355 13.4814L11.0405 2.88207C10.8098 1.70135 9.88697 1.00921 8.85555 1.00921H0.794119L0.685547 1.53849C2.34126 1.89135 4.21412 2.47492 5.35412 3.09921C6.04626 3.47921 6.24983 3.80492 6.48055 4.71421L10.2534 19.3306H15.2613L22.9427 1.00921H17.9755Z" fill="white"/>
</svg>
