<svg width="24" height="24" viewBox="0 0 24 24" fill="none" xmlns="http://www.w3.org/2000/svg">
<path d="M2.5 12C2.5 7.52166 2.5 5.28249 3.89124 3.89124C5.28249 2.5 7.52166 2.5 12 2.5C16.4783 2.5 18.7175 2.5 20.1088 3.89124C21.5 5.28249 21.5 7.52166 21.5 12C21.5 16.4783 21.5 18.7175 20.1088 20.1088C18.7175 21.5 16.4783 21.5 12 21.5C7.52166 21.5 5.28249 21.5 3.89124 20.1088C2.5 18.7175 2.5 16.4783 2.5 12Z" stroke="#F1B11D" stroke-width="1.5" stroke-linejoin="round"/>
<path d="M6.28304 14C6.5057 12.3289 7.82889 11.0057 9.5 10.783V11.2882C8.10544 11.5036 7.00356 12.6054 6.78822 14H6.28304ZM6.28304 15H6.78822C7.00356 16.3946 8.10544 17.4964 9.5 17.7118V18.217C7.82889 17.9943 6.5057 16.6711 6.28304 15ZM10.5 18.217V17.7118C11.8946 17.4964 12.9964 16.3946 13.2118 15H13.717C13.4943 16.6711 12.1711 17.9943 10.5 18.217ZM13.25 14V8.70063C13.4052 8.89248 13.5731 9.07152 13.75 9.2366V14H13.25ZM13.75 7.68309C13.5247 7.32088 13.3642 6.92283 13.2923 6.5H13.75V7.68309ZM14.75 8.77531V8.1182C14.8097 8.17472 14.8716 8.22969 14.9354 8.283C15.5213 8.77235 16.2582 9.10713 17 9.21362V9.71815C16.1924 9.61632 15.3973 9.27571 14.75 8.77531Z" fill="#F1B11D" stroke="#F1B11D"/>
</svg>
