<svg width="24" height="24" viewBox="0 0 24 24" fill="none" xmlns="http://www.w3.org/2000/svg">
<mask id="path-1-inside-1_2917_2715" fill="white">
<path d="M2.00002 16.4444L1.69932 15.7574C1.40535 15.886 1.2258 16.1874 1.25265 16.5072C1.2795 16.827 1.50681 17.0942 1.81812 17.1721L2.00002 16.4444ZM5.33335 19.7778L4.60575 19.9597L4.74777 20.5278H5.33335V19.7778ZM12 22L11.5315 22.5857C11.8054 22.8048 12.1946 22.8048 12.4685 22.5857L12 22ZM22 16.4444L22.1819 17.1721C22.4932 17.0942 22.7205 16.827 22.7474 16.5072C22.7742 16.1874 22.5947 15.886 22.3007 15.7574L22 16.4444ZM18.6667 19.7778V20.5278H19.2523L19.3943 19.9597L18.6667 19.7778ZM12 1.25C8.58997 1.25 5.82558 4.01439 5.82558 7.42444H7.32558C7.32558 4.84282 9.4184 2.75 12 2.75V1.25ZM5.82558 7.42444C5.82558 9.82863 5.75621 11.4509 5.22398 12.711C4.7217 13.9002 3.76077 14.8552 1.69932 15.7574L2.30072 17.1315C4.57815 16.1348 5.90501 14.9537 6.60578 13.2946C7.27661 11.7064 7.32558 9.76804 7.32558 7.42444H5.82558ZM1.81812 17.1721C2.91482 17.4462 3.43097 17.6861 3.76136 18.0164C4.09174 18.3468 4.33157 18.863 4.60575 19.9597L6.06096 19.5959C5.77958 18.4704 5.46386 17.5976 4.82202 16.9558C4.18018 16.3139 3.30745 15.9982 2.18192 15.7168L1.81812 17.1721ZM5.33335 20.5278C7.1364 20.5278 8.69255 21.0437 9.80567 21.5675C10.3605 21.8286 10.7996 22.089 11.0971 22.282C11.2456 22.3784 11.3583 22.4575 11.4319 22.5111C11.4687 22.5378 11.4957 22.5581 11.5124 22.5709C11.5208 22.5773 11.5266 22.5818 11.5298 22.5843C11.5314 22.5856 11.5323 22.5863 11.5326 22.5866C11.5325 22.5865 11.5316 22.5858 11.5315 22.5857C11.5314 22.5856 11.5315 22.5857 12 22C12.4685 21.4143 12.4683 21.4142 12.4681 21.414C12.468 21.4139 12.4683 21.4142 12.4681 21.414C12.4678 21.4137 12.4669 21.413 12.4664 21.4127C12.4656 21.412 12.4645 21.4112 12.4633 21.4102C12.4609 21.4083 12.4578 21.4059 12.454 21.4029C12.4465 21.397 12.4362 21.389 12.4233 21.3792C12.3975 21.3594 12.3609 21.332 12.3142 21.298C12.2207 21.23 12.086 21.1355 11.9134 21.0236C11.5685 20.7998 11.07 20.5047 10.4443 20.2103C9.19636 19.623 7.4192 19.0278 5.33335 19.0278V20.5278ZM12 2.75C14.5816 2.75 16.6744 4.84282 16.6744 7.42444H18.1744C18.1744 4.01439 15.4101 1.25 12 1.25V2.75ZM16.6744 7.42444C16.6744 9.76804 16.7234 11.7064 17.3942 13.2946C18.095 14.9537 19.4219 16.1348 21.6993 17.1315L22.3007 15.7574C20.2392 14.8552 19.2783 13.9002 18.776 12.711C18.2438 11.4509 18.1744 9.82863 18.1744 7.42444H16.6744ZM21.8181 15.7168C20.6926 15.9982 19.8198 16.3139 19.178 16.9558C18.5362 17.5976 18.2204 18.4704 17.9391 19.5959L19.3943 19.9597C19.6684 18.863 19.9083 18.3468 20.2387 18.0164C20.569 17.6861 21.0852 17.4462 22.1819 17.1721L21.8181 15.7168ZM18.6667 19.0278C16.5808 19.0278 14.8036 19.623 13.5557 20.2103C12.93 20.5047 12.4315 20.7998 12.0866 21.0236C11.914 21.1355 11.7793 21.23 11.6858 21.298C11.6391 21.332 11.6025 21.3594 11.5767 21.3792C11.5638 21.389 11.5535 21.397 11.546 21.4029C11.5422 21.4059 11.5391 21.4083 11.5367 21.4102C11.5355 21.4112 11.5344 21.412 11.5336 21.4127C11.5331 21.413 11.5327 21.4133 11.5324 21.4136C11.5322 21.4138 11.5325 21.4135 11.5324 21.4136C11.5322 21.4138 11.5315 21.4143 12 22C12.4685 22.5857 12.4686 22.5856 12.4685 22.5857C12.4684 22.5858 12.4686 22.5856 12.4685 22.5857C12.4683 22.5858 12.4676 22.5864 12.4675 22.5865C12.4673 22.5866 12.4673 22.5867 12.4675 22.5865C12.4678 22.5862 12.4686 22.5856 12.4702 22.5843C12.4734 22.5818 12.4792 22.5773 12.4876 22.5709C12.5043 22.5581 12.5313 22.5378 12.5681 22.5111C12.6417 22.4575 12.7544 22.3784 12.9029 22.282C13.2004 22.089 13.6395 21.8286 14.1943 21.5675C15.3075 21.0437 16.8636 20.5278 18.6667 20.5278V19.0278Z"/>
</mask>
<path d="M2.00002 16.4444L1.69932 15.7574C1.40535 15.886 1.2258 16.1874 1.25265 16.5072C1.2795 16.827 1.50681 17.0942 1.81812 17.1721L2.00002 16.4444ZM5.33335 19.7778L4.60575 19.9597L4.74777 20.5278H5.33335V19.7778ZM12 22L11.5315 22.5857C11.8054 22.8048 12.1946 22.8048 12.4685 22.5857L12 22ZM22 16.4444L22.1819 17.1721C22.4932 17.0942 22.7205 16.827 22.7474 16.5072C22.7742 16.1874 22.5947 15.886 22.3007 15.7574L22 16.4444ZM18.6667 19.7778V20.5278H19.2523L19.3943 19.9597L18.6667 19.7778ZM12 1.25C8.58997 1.25 5.82558 4.01439 5.82558 7.42444H7.32558C7.32558 4.84282 9.4184 2.75 12 2.75V1.25ZM5.82558 7.42444C5.82558 9.82863 5.75621 11.4509 5.22398 12.711C4.7217 13.9002 3.76077 14.8552 1.69932 15.7574L2.30072 17.1315C4.57815 16.1348 5.90501 14.9537 6.60578 13.2946C7.27661 11.7064 7.32558 9.76804 7.32558 7.42444H5.82558ZM1.81812 17.1721C2.91482 17.4462 3.43097 17.6861 3.76136 18.0164C4.09174 18.3468 4.33157 18.863 4.60575 19.9597L6.06096 19.5959C5.77958 18.4704 5.46386 17.5976 4.82202 16.9558C4.18018 16.3139 3.30745 15.9982 2.18192 15.7168L1.81812 17.1721ZM5.33335 20.5278C7.1364 20.5278 8.69255 21.0437 9.80567 21.5675C10.3605 21.8286 10.7996 22.089 11.0971 22.282C11.2456 22.3784 11.3583 22.4575 11.4319 22.5111C11.4687 22.5378 11.4957 22.5581 11.5124 22.5709C11.5208 22.5773 11.5266 22.5818 11.5298 22.5843C11.5314 22.5856 11.5323 22.5863 11.5326 22.5866C11.5325 22.5865 11.5316 22.5858 11.5315 22.5857C11.5314 22.5856 11.5315 22.5857 12 22C12.4685 21.4143 12.4683 21.4142 12.4681 21.414C12.468 21.4139 12.4683 21.4142 12.4681 21.414C12.4678 21.4137 12.4669 21.413 12.4664 21.4127C12.4656 21.412 12.4645 21.4112 12.4633 21.4102C12.4609 21.4083 12.4578 21.4059 12.454 21.4029C12.4465 21.397 12.4362 21.389 12.4233 21.3792C12.3975 21.3594 12.3609 21.332 12.3142 21.298C12.2207 21.23 12.086 21.1355 11.9134 21.0236C11.5685 20.7998 11.07 20.5047 10.4443 20.2103C9.19636 19.623 7.4192 19.0278 5.33335 19.0278V20.5278ZM12 2.75C14.5816 2.75 16.6744 4.84282 16.6744 7.42444H18.1744C18.1744 4.01439 15.4101 1.25 12 1.25V2.75ZM16.6744 7.42444C16.6744 9.76804 16.7234 11.7064 17.3942 13.2946C18.095 14.9537 19.4219 16.1348 21.6993 17.1315L22.3007 15.7574C20.2392 14.8552 19.2783 13.9002 18.776 12.711C18.2438 11.4509 18.1744 9.82863 18.1744 7.42444H16.6744ZM21.8181 15.7168C20.6926 15.9982 19.8198 16.3139 19.178 16.9558C18.5362 17.5976 18.2204 18.4704 17.9391 19.5959L19.3943 19.9597C19.6684 18.863 19.9083 18.3468 20.2387 18.0164C20.569 17.6861 21.0852 17.4462 22.1819 17.1721L21.8181 15.7168ZM18.6667 19.0278C16.5808 19.0278 14.8036 19.623 13.5557 20.2103C12.93 20.5047 12.4315 20.7998 12.0866 21.0236C11.914 21.1355 11.7793 21.23 11.6858 21.298C11.6391 21.332 11.6025 21.3594 11.5767 21.3792C11.5638 21.389 11.5535 21.397 11.546 21.4029C11.5422 21.4059 11.5391 21.4083 11.5367 21.4102C11.5355 21.4112 11.5344 21.412 11.5336 21.4127C11.5331 21.413 11.5327 21.4133 11.5324 21.4136C11.5322 21.4138 11.5325 21.4135 11.5324 21.4136C11.5322 21.4138 11.5315 21.4143 12 22C12.4685 22.5857 12.4686 22.5856 12.4685 22.5857C12.4684 22.5858 12.4686 22.5856 12.4685 22.5857C12.4683 22.5858 12.4676 22.5864 12.4675 22.5865C12.4673 22.5866 12.4673 22.5867 12.4675 22.5865C12.4678 22.5862 12.4686 22.5856 12.4702 22.5843C12.4734 22.5818 12.4792 22.5773 12.4876 22.5709C12.5043 22.5581 12.5313 22.5378 12.5681 22.5111C12.6417 22.4575 12.7544 22.3784 12.9029 22.282C13.2004 22.089 13.6395 21.8286 14.1943 21.5675C15.3075 21.0437 16.8636 20.5278 18.6667 20.5278V19.0278Z" fill="#F1B11D"/>
<path d="M11.5326 22.5866L11.7562 22.1394L11.1791 22.9402L11.5326 22.5866ZM5.82558 7.92444H7.32558V6.92444H5.82558V7.92444ZM12.5 2.75V1.25H11.5V2.75H12.5ZM11.309 23.0338C11.2807 23.0197 11.2492 23.0005 11.2174 22.9747C11.2027 22.9627 11.1794 22.9425 11.1546 22.9138C11.1428 22.9001 11.1222 22.8749 11.1016 22.8399C11.0914 22.8224 11.0328 22.7257 11.0328 22.5867C11.0328 22.5034 11.0546 22.3819 11.1452 22.2708C11.236 22.1595 11.351 22.1134 11.4332 22.0967C11.57 22.0689 11.677 22.1076 11.6953 22.1139C11.7606 22.1363 11.8054 22.1674 11.816 22.1747C11.8506 22.1984 11.8746 22.2215 11.8862 22.233L11.1791 22.9402C11.1908 22.9518 11.2149 22.9749 11.2495 22.9987C11.2601 23.006 11.3049 23.0371 11.3702 23.0596C11.3885 23.0659 11.4955 23.1045 11.6323 23.0767C11.7146 23.06 11.8295 23.014 11.9203 22.9027C12.0109 22.7915 12.0328 22.67 12.0328 22.5867C12.0328 22.4477 11.9742 22.351 11.9639 22.3335C11.9434 22.2985 11.9228 22.2733 11.9109 22.2596C11.8861 22.2309 11.8628 22.2106 11.848 22.1986C11.8162 22.1728 11.7846 22.1536 11.7562 22.1394L11.309 23.0338ZM16.6744 7.92444H18.1744V6.92444H16.6744V7.92444ZM2.00002 16.4444L2.97017 16.6869L3.05289 16.3559L2.91611 16.0434L2.00002 16.4444ZM1.81812 17.1721L1.57537 18.1422L1.57564 18.1423L1.81812 17.1721ZM5.33335 19.7778H6.33335V18.497L5.09081 18.8077L5.33335 19.7778ZM4.74777 20.5278L3.77762 20.7703L3.96698 21.5278H4.74777V20.5278ZM22 16.4444L21.0839 16.0434L20.9471 16.3559L21.0299 16.6869L22 16.4444ZM22.1819 17.1721L22.4244 18.1423L22.4247 18.1422L22.1819 17.1721ZM22.7474 16.5072L23.7439 16.591L23.7439 16.5907L22.7474 16.5072ZM18.6667 19.7778L18.9093 18.8077L17.6667 18.497V19.7778H18.6667ZM19.2523 20.5278V21.5278H20.0331L20.2225 20.7703L19.2523 20.5278ZM19.3943 19.9597L20.3645 20.2022L20.3645 20.2022L19.3943 19.9597ZM5.22398 12.711L4.30278 12.3219L4.30277 12.3219L5.22398 12.711ZM2.30072 17.1315L1.38461 17.5324L1.78555 18.4485L2.70164 18.0476L2.30072 17.1315ZM6.60578 13.2946L5.68458 12.9055L5.68458 12.9055L6.60578 13.2946ZM3.76136 18.0164L4.46848 17.3093L4.46837 17.3092L3.76136 18.0164ZM6.06096 19.5959L6.30349 20.566L7.27364 20.3235L7.0311 19.3534L6.06096 19.5959ZM4.82202 16.9558L4.11488 17.6629L4.11493 17.6629L4.82202 16.9558ZM2.18192 15.7168L2.42447 14.7467L1.4543 14.5041L1.21177 15.4743L2.18192 15.7168ZM9.80567 21.5675L10.2315 20.6627H10.2315L9.80567 21.5675ZM11.0971 22.282L11.6416 21.4432L11.6414 21.4431L11.0971 22.282ZM11.4319 22.5111L10.8432 23.3195L10.8447 23.3205L11.4319 22.5111ZM11.5124 22.5709L10.9041 23.3646L10.9064 23.3663L11.5124 22.5709ZM11.5298 22.5843L12.1604 21.8082L12.153 21.8022L12.1455 21.7963L11.5298 22.5843ZM12.4664 21.4127L11.8079 22.1653L11.8752 22.2242L11.9519 22.2702L12.4664 21.4127ZM12.4633 21.4102L13.1035 20.642L13.0939 20.6339L13.084 20.6262L12.4633 21.4102ZM12.454 21.4029L13.0737 20.618L13.0723 20.6169L12.454 21.4029ZM12.4233 21.3792L11.8145 22.1725L11.8184 22.1755L12.4233 21.3792ZM12.3142 21.298L12.9028 20.4896L12.9024 20.4893L12.3142 21.298ZM11.9134 21.0236L11.3691 21.8625L11.3694 21.8627L11.9134 21.0236ZM10.4443 20.2103L10.0185 21.1151L10.0186 21.1151L10.4443 20.2103ZM5.33335 19.0278V18.0278H4.33335V19.0278H5.33335ZM17.3942 13.2946L16.473 13.6837L16.473 13.6837L17.3942 13.2946ZM21.6993 17.1315L21.2984 18.0476L22.2145 18.4485L22.6154 17.5324L21.6993 17.1315ZM18.776 12.711L17.8548 13.1001L17.8548 13.1001L18.776 12.711ZM21.8181 15.7168L22.7883 15.4743L22.5457 14.5041L21.5756 14.7467L21.8181 15.7168ZM19.178 16.9558L19.8851 17.6629L19.8852 17.6629L19.178 16.9558ZM17.9391 19.5959L16.969 19.3534L16.7265 20.3235L17.6966 20.566L17.9391 19.5959ZM18.6667 19.0278H19.6667V18.0278H18.6667V19.0278ZM13.5557 20.2103L13.9815 21.1151L13.9815 21.1151L13.5557 20.2103ZM12.0866 21.0236L12.6306 21.8627L12.6309 21.8625L12.0866 21.0236ZM11.6858 21.298L11.0976 20.4893L11.0972 20.4896L11.6858 21.298ZM11.5767 21.3792L12.1816 22.1755L12.1855 22.1725L11.5767 21.3792ZM11.546 21.4029L10.9277 20.6169L10.9264 20.618L11.546 21.4029ZM11.5367 21.4102L10.916 20.6262L10.9062 20.6339L10.8965 20.642L11.5367 21.4102ZM11.5336 21.4127L12.0481 22.2702L12.1248 22.2242L12.1921 22.1653L11.5336 21.4127ZM12.4702 22.5843L11.8546 21.7963L11.847 21.8022L11.8396 21.8082L12.4702 22.5843ZM12.4876 22.5709L13.0937 23.3663L13.0959 23.3646L12.4876 22.5709ZM12.5681 22.5111L13.1554 23.3205L13.1568 23.3195L12.5681 22.5111ZM12.9029 22.282L12.3587 21.4431L12.3584 21.4432L12.9029 22.282ZM14.1943 21.5675L13.7686 20.6627L13.7685 20.6627L14.1943 21.5675ZM2.91611 16.0434L2.61541 15.3564L0.783225 16.1584L1.08393 16.8454L2.91611 16.0434ZM1.29853 14.8412C0.612428 15.1414 0.19351 15.8448 0.256151 16.5909L2.24914 16.4235C2.25808 16.53 2.19826 16.6306 2.1001 16.6736L1.29853 14.8412ZM0.256151 16.5909C0.318808 17.3371 0.849268 17.9605 1.57537 18.1422L2.06086 16.202C2.16434 16.2279 2.24018 16.3169 2.24914 16.4235L0.256151 16.5909ZM2.78827 17.4146L2.97017 16.6869L1.02987 16.2019L0.847965 16.9296L2.78827 17.4146ZM5.09081 18.8077L4.36321 18.9896L4.84828 20.9298L5.57588 20.7479L5.09081 18.8077ZM3.6356 20.2022L3.77762 20.7703L5.71791 20.2853L5.57589 19.7172L3.6356 20.2022ZM4.74777 21.5278H5.33335V19.5278H4.74777V21.5278ZM6.33335 20.5278V19.7778H4.33335V20.5278H6.33335ZM11.2191 21.3754L10.7506 21.9611L12.3124 23.2103L12.7809 22.6246L11.2191 21.3754ZM10.9069 23.3666C11.546 23.8778 12.4541 23.8778 13.0932 23.3666L11.8439 21.8048C11.9352 21.7318 12.0649 21.7318 12.1562 21.8048L10.9069 23.3666ZM13.2494 21.9611L12.7809 21.3754L11.2191 22.6246L11.6876 23.2103L13.2494 21.9611ZM21.0299 16.6869L21.2118 17.4146L23.1521 16.9296L22.9702 16.2019L21.0299 16.6869ZM22.4247 18.1422C23.1508 17.9605 23.6811 17.3371 23.7439 16.591L21.7509 16.4234C21.7599 16.3169 21.8356 16.2279 21.9392 16.202L22.4247 18.1422ZM23.7439 16.5907C23.8064 15.8448 23.3877 15.1414 22.7015 14.8412L21.9 16.6736C21.8017 16.6306 21.742 16.53 21.7509 16.4237L23.7439 16.5907ZM21.3846 15.3564L21.0839 16.0434L22.9161 16.8454L23.2168 16.1584L21.3846 15.3564ZM17.6667 19.7778V20.5278H19.6667V19.7778H17.6667ZM18.6667 21.5278H19.2523V19.5278H18.6667V21.5278ZM20.2225 20.7703L20.3645 20.2022L18.4242 19.7172L18.2822 20.2853L20.2225 20.7703ZM19.6369 18.9896L18.9093 18.8077L18.4242 20.7479L19.1518 20.9298L19.6369 18.9896ZM12 0.25C8.03768 0.25 4.82558 3.46211 4.82558 7.42444H6.82558C6.82558 4.56667 9.14225 2.25 12 2.25V0.25ZM8.32558 7.42444C8.32558 5.3951 9.97068 3.75 12 3.75V1.75C8.86611 1.75 6.32558 4.29054 6.32558 7.42444H8.32558ZM4.82558 7.42444C4.82558 9.87046 4.74243 11.281 4.30278 12.3219L6.14518 13.1001C6.76998 11.6208 6.82558 9.7868 6.82558 7.42444H4.82558ZM4.30277 12.3219C3.93267 13.1982 3.21535 14.0023 1.29838 14.8413L2.10025 16.6735C4.30618 15.7081 5.51072 14.6022 6.14518 13.1001L4.30277 12.3219ZM0.783215 16.1583L1.38461 17.5324L3.21682 16.7306L2.61542 15.3565L0.783215 16.1583ZM2.70164 18.0476C5.12266 16.9881 6.69375 15.6564 7.52697 13.6837L5.68458 12.9055C5.11626 14.251 4.03363 15.2815 1.89979 16.2154L2.70164 18.0476ZM7.52697 13.6837C8.29004 11.8771 8.32558 9.7289 8.32558 7.42444H6.32558C6.32558 9.80718 6.26317 11.5357 5.68458 12.9055L7.52697 13.6837ZM1.57564 18.1423C2.65452 18.4119 2.93207 18.6014 3.05434 18.7236L4.46837 17.3092C3.92986 16.7708 3.17511 16.4805 2.06059 16.2019L1.57564 18.1423ZM3.05423 18.7235C3.17646 18.8457 3.36584 19.1232 3.6356 20.2022L5.57589 19.7172C5.29729 18.6028 5.00701 17.8479 4.46848 17.3093L3.05423 18.7235ZM4.84828 20.9298L6.30349 20.566L5.81842 18.6258L4.36321 18.9896L4.84828 20.9298ZM7.0311 19.3534C6.74465 18.2076 6.37824 17.0978 5.5291 16.2487L4.11493 17.6629C4.54947 18.0974 4.8145 18.7332 5.09081 19.8384L7.0311 19.3534ZM5.52916 16.2487C4.68004 15.3995 3.57025 15.0331 2.42447 14.7467L1.93937 16.6869C3.04464 16.9633 3.68032 17.2283 4.11488 17.6629L5.52916 16.2487ZM1.21177 15.4743L0.847969 16.9296L2.78826 17.4146L3.15206 15.9593L1.21177 15.4743ZM5.33335 21.5278C6.94789 21.5278 8.35671 21.9908 9.37988 22.4723L10.2315 20.6627C9.0284 20.0966 7.3249 19.5278 5.33335 19.5278V21.5278ZM9.37988 22.4723C9.88756 22.7112 10.2871 22.9485 10.5529 23.1209L11.6414 21.4431C11.3122 21.2295 10.8335 20.946 10.2315 20.6627L9.37988 22.4723ZM10.5526 23.1208C10.6856 23.2071 10.7835 23.276 10.8432 23.3195L12.0206 21.7027C11.9331 21.639 11.8057 21.5497 11.6416 21.4432L10.5526 23.1208ZM10.8447 23.3205C10.8749 23.3424 10.8948 23.3575 10.9041 23.3646L12.1207 21.7772C12.0966 21.7587 12.0626 21.7332 12.0192 21.7017L10.8447 23.3205ZM10.9064 23.3663C10.9116 23.3703 10.9142 23.3724 10.9142 23.3723L12.1455 21.7963C12.139 21.7912 12.13 21.7843 12.1185 21.7755L10.9064 23.3663ZM10.8992 23.3604C10.9011 23.362 10.9026 23.3632 10.9033 23.3637C10.9047 23.3649 10.9031 23.3636 10.9018 23.3625C10.901 23.3618 10.8946 23.3567 10.8866 23.3499C10.8824 23.3463 10.8752 23.3402 10.8665 23.3324C10.8585 23.3253 10.8435 23.3117 10.8255 23.2937L12.2397 21.8795C12.2216 21.8614 12.2065 21.8477 12.1985 21.8405C12.1896 21.8326 12.1823 21.8264 12.1779 21.8227C12.1696 21.8156 12.1629 21.8102 12.1616 21.8091C12.1598 21.8077 12.1577 21.806 12.1584 21.8066C12.1585 21.8066 12.1593 21.8073 12.1604 21.8082L10.8992 23.3604ZM12.2397 21.8795C12.2326 21.8723 12.2263 21.8663 12.2216 21.8618C12.2167 21.8572 12.2125 21.8532 12.209 21.85C12.2022 21.8438 12.1966 21.8388 12.1928 21.8355C12.1888 21.8319 12.1853 21.829 12.1828 21.8268C12.1802 21.8246 12.1779 21.8226 12.1761 21.8211C12.1725 21.8182 12.1696 21.8157 12.1678 21.8142C12.1658 21.8126 12.1641 21.8112 12.1629 21.8103C12.1607 21.8084 12.1589 21.807 12.1581 21.8064C12.1577 21.806 12.1573 21.8057 12.1571 21.8055C12.1569 21.8054 12.1567 21.8052 12.1567 21.8052C12.1565 21.8051 12.1571 21.8055 12.1577 21.8061C12.1584 21.8066 12.1601 21.8079 12.1622 21.8097C12.1634 21.8106 12.165 21.8119 12.1669 21.8135C12.1688 21.815 12.1716 21.8174 12.1751 21.8203C12.1769 21.8219 12.1792 21.8238 12.1818 21.826C12.1843 21.8282 12.1877 21.8311 12.1917 21.8346C12.1955 21.838 12.2012 21.843 12.2079 21.8492C12.2114 21.8523 12.2156 21.8563 12.2205 21.8609C12.2252 21.8654 12.2315 21.8714 12.2386 21.8786L10.8244 23.2928C10.8316 23.3 10.8378 23.306 10.8426 23.3105C10.8474 23.3151 10.8517 23.3191 10.8551 23.3223C10.8619 23.3285 10.8675 23.3335 10.8714 23.3368C10.8754 23.3404 10.8788 23.3433 10.8814 23.3455C10.884 23.3477 10.8862 23.3497 10.8881 23.3512C10.8916 23.3541 10.8945 23.3566 10.8964 23.3581C10.8984 23.3597 10.9 23.3611 10.9012 23.362C10.9035 23.3639 10.9053 23.3653 10.906 23.3659C10.9065 23.3663 10.9068 23.3666 10.9071 23.3668C10.9073 23.3669 10.9074 23.3671 10.9074 23.3671C10.9076 23.3672 10.9071 23.3668 10.9064 23.3662C10.9057 23.3657 10.9041 23.3644 10.9019 23.3626C10.9008 23.3617 10.8992 23.3604 10.8972 23.3588C10.8954 23.3573 10.8925 23.3549 10.889 23.352C10.8872 23.3504 10.885 23.3485 10.8824 23.3463C10.8798 23.3441 10.8764 23.3412 10.8724 23.3377C10.8686 23.3343 10.863 23.3293 10.8562 23.3231C10.8528 23.32 10.8485 23.316 10.8436 23.3114C10.8389 23.3069 10.8327 23.3009 10.8255 23.2937L12.2397 21.8795ZM12.2386 21.8786C12.2243 21.8643 12.3383 21.9681 12.4206 22.1279C12.5191 22.3192 12.5416 22.5126 12.5278 22.6722C12.5158 22.8094 12.478 22.9124 12.4588 22.9601C12.4373 23.0133 12.4157 23.0535 12.4039 23.0746C12.3807 23.1159 12.3596 23.1464 12.3538 23.1548C12.3451 23.1673 12.338 23.1769 12.3347 23.1814C12.3279 23.1905 12.3225 23.1975 12.3214 23.199C12.3194 23.2015 12.3179 23.2034 12.3174 23.2041C12.3161 23.2057 12.3159 23.2059 12.32 23.2007C12.3271 23.1919 12.3414 23.1741 12.3708 23.1372C12.4294 23.064 12.5466 22.9176 12.7809 22.6246L11.2191 21.3754C10.9849 21.6681 10.8678 21.8145 10.8093 21.8877C10.7801 21.924 10.7652 21.9428 10.7575 21.9523C10.7544 21.9562 10.7506 21.961 10.7474 21.965C10.7465 21.9662 10.7446 21.9685 10.7424 21.9714C10.741 21.9732 10.7354 21.9804 10.7285 21.9897C10.7251 21.9942 10.718 22.0039 10.7093 22.0165C10.7035 22.0249 10.6824 22.0554 10.6592 22.0968C10.6576 22.0995 10.5556 22.2651 10.5353 22.4992C10.5214 22.6588 10.5439 22.8522 10.6425 23.0435C10.7248 23.2033 10.8387 23.3071 10.8244 23.2928L12.2386 21.8786ZM12.7809 22.6246C13.0151 22.3319 13.1325 22.185 13.1913 22.1113C13.2204 22.075 13.2363 22.055 13.245 22.0439C13.2479 22.0403 13.255 22.0313 13.262 22.0222C13.2641 22.0194 13.2683 22.0139 13.2734 22.007C13.2768 22.0023 13.2888 21.986 13.3031 21.9643C13.3102 21.9535 13.3242 21.932 13.34 21.9038C13.3522 21.8821 13.3868 21.8194 13.4159 21.733C13.4414 21.6571 13.506 21.4405 13.4379 21.1698C13.3629 20.8722 13.1663 20.698 13.1752 20.7069L11.761 22.1211C11.7699 22.13 11.5733 21.9558 11.4984 21.6582C11.4302 21.3875 11.4948 21.171 11.5203 21.0951C11.5494 21.0087 11.584 20.9461 11.5962 20.9244C11.612 20.8962 11.6259 20.8748 11.633 20.864C11.6471 20.8425 11.659 20.8264 11.6622 20.8221C11.667 20.8155 11.6708 20.8105 11.6726 20.8082C11.6777 20.8014 11.6812 20.7971 11.6768 20.8026C11.6711 20.8099 11.6578 20.8267 11.6283 20.8635C11.5702 20.9364 11.4534 21.0824 11.2191 21.3754L12.7809 22.6246ZM13.1752 20.7069C13.1752 20.7069 13.1752 20.7069 13.1752 20.7069C13.1752 20.7068 13.1753 20.7069 13.1752 20.7069H13.1752C13.1752 20.7069 13.1752 20.7069 13.1752 20.7069C13.1752 20.7069 13.1752 20.7069 13.1752 20.7069C13.1752 20.7069 13.1752 20.7069 13.1752 20.7069C13.1752 20.7069 13.1752 20.7069 13.1752 20.7069C13.1752 20.7069 13.1752 20.7069 13.1752 20.7069C13.1752 20.7069 13.1752 20.7069 13.1752 20.7069C13.1752 20.7069 13.1752 20.7069 13.1752 20.7069C13.1752 20.7069 13.1752 20.7069 13.1752 20.7069C13.1752 22.1211 11.761 22.1211 11.761 22.1211C11.761 22.1211 11.761 22.1211 11.761 22.1211C11.761 22.1211 11.761 22.1211 11.761 22.1211C11.761 22.1211 11.761 22.1211 11.761 22.1211C11.761 22.1211 11.761 22.1211 11.761 22.1211C11.761 22.1211 11.761 22.1211 11.761 22.1211C11.761 22.1211 11.761 22.1211 11.761 22.1211C11.7611 22.1211 11.7611 22.1212 11.7611 22.1212C11.7611 22.1212 11.761 22.1211 11.7611 22.1212C11.7611 22.1212 11.7611 22.1212 11.7611 22.1212C11.7611 22.1212 11.7611 22.1212 11.7611 22.1212C11.7611 22.1212 11.7611 22.1212 11.7611 22.1212C11.7611 22.1212 11.7611 22.1212 11.7611 22.1212C11.7611 22.1212 11.7611 22.1212 11.7611 22.1212C11.7611 22.1212 11.7611 22.1212 11.7611 22.1212C11.7611 22.1212 11.7611 22.1212 11.7611 22.1212C11.7611 22.1212 11.7611 22.1212 11.7611 22.1212C11.7611 22.1212 11.7611 22.1212 11.7611 22.1212C11.7611 22.1212 11.7611 22.1212 11.7611 22.1212C11.7611 22.1212 13.1753 20.707 13.1753 20.707C13.1753 20.707 13.1753 20.707 13.1753 20.707C13.1753 20.707 13.1753 20.707 13.1753 20.707C13.1753 20.707 13.1753 20.707 13.1753 20.707C13.1753 20.707 13.1753 20.707 13.1753 20.707C13.1753 20.707 13.1753 20.707 13.1753 20.707C13.1753 20.7069 13.1753 20.707 13.1753 20.7069C13.1753 20.7069 13.1753 20.707 13.1753 20.7069C13.1753 20.7069 13.1753 20.7069 13.1753 20.7069C13.1752 20.7069 13.1752 20.7069 13.1752 20.7069L11.761 22.1211C11.761 22.1211 11.761 22.1211 11.761 22.1211C11.761 22.1211 11.761 22.1211 11.761 22.1211C11.761 22.1211 11.761 22.1211 11.761 22.1211C11.761 22.1211 11.761 22.1211 11.761 22.1211C11.761 22.1211 11.761 22.1211 11.761 22.1211C11.761 22.1211 11.761 22.1211 11.7611 22.1212C11.7611 22.1212 11.761 22.1211 11.7611 22.1212C11.7611 22.1212 11.7611 22.1212 11.7611 22.1212C11.7611 22.1212 11.7611 22.1212 11.7611 22.1212C11.7611 22.1212 11.7611 22.1212 11.7611 22.1212C11.7611 22.1212 11.7611 22.1212 11.7611 22.1212C11.7611 22.1212 11.7611 22.1212 11.7611 22.1212C11.7611 22.1212 11.7611 22.1212 11.7611 22.1212V22.1212V22.1212L13.1753 20.707C13.1753 20.707 13.1753 20.707 13.1753 20.707C13.1753 20.707 13.1753 20.707 13.1753 20.707C13.1753 20.707 13.1753 20.707 13.1753 20.707C13.1753 20.7069 13.1753 20.7069 13.1753 20.7069C13.1753 20.7069 13.1753 20.7069 13.1753 20.7069C13.1753 20.7069 13.1753 20.7069 13.1752 20.7069C13.1752 20.7069 13.1753 20.7069 13.1752 20.7069L13.1752 20.7069C13.1752 20.7069 13.1752 20.7069 13.1752 20.7069C13.1752 20.7069 13.1752 20.7069 13.1752 20.7069C13.1752 20.7069 13.1752 20.7069 13.1752 20.7069C13.1752 20.7069 13.1752 20.7069 13.1752 20.7069C13.1752 20.7069 13.1752 20.7069 13.1752 20.7069C13.1752 20.7069 13.1752 20.7069 13.1752 20.7069C13.1752 20.7069 13.1752 20.7069 13.1752 20.7069C13.1752 20.7069 13.1752 20.7069 13.1752 20.7069C13.1752 20.7069 13.1752 20.7069 13.1752 20.7069H13.1752C13.1752 20.7069 13.1752 20.7069 13.1752 20.7069C13.1752 20.7069 13.1752 20.7069 13.1752 20.7069C13.1752 20.7069 13.1752 20.7069 13.1752 20.7069C13.1752 20.7069 13.1752 20.7069 13.1752 20.7069C13.1752 20.7069 13.1752 20.7069 13.1752 20.7069C13.1752 20.7069 11.761 20.7069 11.761 22.1211C11.761 22.1211 11.761 22.1211 11.761 22.1211C11.761 22.1211 11.761 22.1211 11.761 22.1211C11.761 22.1211 11.761 22.1211 11.761 22.1211C11.761 22.1211 11.761 22.1211 11.761 22.1211H11.761C11.761 22.1211 11.761 22.1211 11.761 22.1211C11.761 22.1211 11.761 22.1211 11.761 22.1211C11.761 22.1211 11.761 22.1211 11.761 22.1211L13.1752 20.7069ZM13.1752 20.7069C13.1102 20.6418 13.0426 20.5922 12.9809 20.5552L11.9519 22.2702C11.9228 22.2527 11.9008 22.2375 11.8904 22.2301C11.8779 22.2213 11.867 22.2132 11.8579 22.2062C11.8489 22.1993 11.8381 22.1907 11.8261 22.1806C11.8186 22.1744 11.7922 22.1523 11.761 22.1211L13.1752 20.7069ZM13.1249 20.6601C13.111 20.648 13.0996 20.6387 13.0937 20.6339C13.0878 20.6291 13.0829 20.6253 13.0829 20.6253C13.0815 20.6242 13.0844 20.6264 13.0873 20.6288C13.0909 20.6316 13.0966 20.6362 13.1035 20.642L11.8231 22.1784C11.8307 22.1847 11.837 22.1898 11.841 22.193C11.8446 22.1958 11.848 22.1985 11.8471 22.1978C11.8471 22.1978 11.8461 22.197 11.8447 22.1959C11.8433 22.1948 11.8409 22.1929 11.8379 22.1905C11.8349 22.188 11.8307 22.1847 11.8259 22.1806C11.821 22.1766 11.8149 22.1714 11.8079 22.1653L13.1249 20.6601ZM13.084 20.6262C13.0817 20.6243 13.0797 20.6228 13.0784 20.6217C13.0772 20.6208 13.0759 20.6198 13.0753 20.6193C13.0738 20.6181 13.0736 20.618 13.0737 20.618L11.8344 22.1878C11.8382 22.1908 11.8415 22.1934 11.8431 22.1946C11.8435 22.195 11.8438 22.1952 11.844 22.1954C11.8441 22.1954 11.8442 22.1955 11.8443 22.1956C11.8443 22.1956 11.8444 22.1956 11.8444 22.1956C11.8444 22.1956 11.8443 22.1956 11.8442 22.1955C11.8442 22.1955 11.8441 22.1954 11.8439 22.1953C11.8437 22.1951 11.8432 22.1947 11.8426 22.1942L13.084 20.6262ZM13.0723 20.6169C13.0604 20.6076 13.0457 20.5962 13.0282 20.5829L11.8184 22.1755C11.8267 22.1818 11.8326 22.1864 11.8357 22.1889L13.0723 20.6169ZM13.0321 20.5859C12.9982 20.5599 12.9547 20.5274 12.9028 20.4896L11.7256 22.1064C11.7671 22.1366 11.7968 22.1589 11.8145 22.1725L13.0321 20.5859ZM12.9024 20.4893C12.7958 20.4117 12.6464 20.307 12.4574 20.1845L11.3694 21.8627C11.5257 21.964 11.6456 22.0483 11.726 22.1067L12.9024 20.4893ZM12.4577 20.1847C12.0811 19.9403 11.5429 19.622 10.8701 19.3055L10.0186 21.1151C10.5971 21.3874 11.056 21.6593 11.3691 21.8625L12.4577 20.1847ZM10.8701 19.3055C9.53226 18.6759 7.60774 18.0278 5.33335 18.0278V20.0278C7.23065 20.0278 8.86047 20.5701 10.0185 21.1151L10.8701 19.3055ZM4.33335 19.0278V20.5278H6.33335V19.0278H4.33335ZM12 3.75C14.0293 3.75 15.6744 5.3951 15.6744 7.42444H17.6744C17.6744 4.29054 15.1339 1.75 12 1.75V3.75ZM19.1744 7.42444C19.1744 3.46212 15.9624 0.25 12 0.25V2.25C14.8578 2.25 17.1744 4.56666 17.1744 7.42444H19.1744ZM15.6744 7.42444C15.6744 9.72892 15.71 11.8771 16.473 13.6837L18.3154 12.9055C17.7368 11.5357 17.6744 9.80716 17.6744 7.42444H15.6744ZM16.473 13.6837C17.3063 15.6564 18.8774 16.9881 21.2984 18.0476L22.1002 16.2154C19.9664 15.2815 18.8838 14.251 18.3154 12.9055L16.473 13.6837ZM22.6154 17.5324L23.2168 16.1583L21.3846 15.3565L20.7832 16.7306L22.6154 17.5324ZM22.7016 14.8413C20.7846 14.0023 20.0673 13.1982 19.6972 12.3219L17.8548 13.1001C18.4893 14.6022 19.6938 15.7081 21.8998 16.6735L22.7016 14.8413ZM19.6972 12.3219C19.2576 11.281 19.1744 9.87044 19.1744 7.42444H17.1744C17.1744 9.78682 17.23 11.6208 17.8548 13.1001L19.6972 12.3219ZM21.5756 14.7467C20.4298 15.0331 19.32 15.3995 18.4709 16.2487L19.8852 17.6629C20.3197 17.2283 20.9554 16.9633 22.0607 16.6869L21.5756 14.7467ZM18.4709 16.2487C17.6218 17.0978 17.2553 18.2076 16.969 19.3534L18.9093 19.8384C19.1855 18.7332 19.4506 18.0974 19.8851 17.6629L18.4709 16.2487ZM17.6966 20.566L19.1518 20.9298L19.6369 18.9896L18.1817 18.6258L17.6966 20.566ZM20.3645 20.2022C20.6341 19.1233 20.8236 18.8458 20.9458 18.7235L19.5316 17.3093C18.9931 17.8478 18.7027 18.6027 18.4242 19.7172L20.3645 20.2022ZM20.9458 18.7235C21.068 18.6014 21.3454 18.4119 22.4244 18.1423L21.9394 16.2019C20.825 16.4805 20.0701 16.7708 19.5316 17.3093L20.9458 18.7235ZM23.1521 16.9296L22.7883 15.4743L20.848 15.9593L21.2118 17.4146L23.1521 16.9296ZM18.6667 18.0278C16.3923 18.0278 14.4677 18.6759 13.1299 19.3055L13.9815 21.1151C15.1395 20.5701 16.7694 20.0278 18.6667 20.0278V18.0278ZM13.13 19.3055C12.4571 19.622 11.919 19.9403 11.5423 20.1847L12.6309 21.8625C12.9441 21.6593 13.4029 21.3874 13.9815 21.1151L13.13 19.3055ZM11.5426 20.1845C11.3537 20.307 11.2042 20.4117 11.0976 20.4893L12.274 22.1067C12.3544 22.0483 12.4744 21.964 12.6306 21.8627L11.5426 20.1845ZM11.0972 20.4896C11.0453 20.5274 11.0018 20.5599 10.9679 20.5859L12.1855 22.1725C12.2032 22.1589 12.2329 22.1366 12.2744 22.1064L11.0972 20.4896ZM10.9718 20.5829C10.9543 20.5962 10.9396 20.6076 10.9277 20.6169L12.1643 22.1889C12.1674 22.1864 12.1733 22.1818 12.1816 22.1755L10.9718 20.5829ZM10.9264 20.618C10.9264 20.618 10.9262 20.6181 10.9247 20.6193C10.9241 20.6198 10.9229 20.6208 10.9216 20.6217C10.9203 20.6228 10.9183 20.6243 10.916 20.6262L12.1574 22.1942C12.1568 22.1947 12.1564 22.1951 12.1561 22.1953C12.156 22.1954 12.1559 22.1955 12.1558 22.1955C12.1557 22.1956 12.1557 22.1956 12.1557 22.1956C12.1557 22.1956 12.1557 22.1956 12.1558 22.1956C12.1558 22.1955 12.1559 22.1954 12.156 22.1954C12.1563 22.1952 12.1565 22.195 12.157 22.1946C12.1586 22.1934 12.1618 22.1908 12.1657 22.1878L10.9264 20.618ZM10.8965 20.642C10.9035 20.6362 10.9092 20.6316 10.9127 20.6288C10.9157 20.6264 10.9186 20.6242 10.9171 20.6253C10.9171 20.6253 10.9122 20.6291 10.9064 20.6339C10.9004 20.6387 10.889 20.648 10.8751 20.6601L12.1921 22.1653C12.1851 22.1714 12.179 22.1766 12.1741 22.1806C12.1693 22.1847 12.1652 22.188 12.1622 22.1905C12.1592 22.1929 12.1567 22.1948 12.1553 22.1959C12.154 22.197 12.1529 22.1978 12.1529 22.1978C12.152 22.1985 12.1554 22.1958 12.159 22.193C12.1631 22.1898 12.1694 22.1847 12.1769 22.1784L10.8965 20.642ZM11.0191 20.5552C10.9721 20.5834 10.9001 20.6317 10.8253 20.7065L12.2395 22.1207C12.1653 22.1949 12.0941 22.2426 12.0481 22.2702L11.0191 20.5552ZM10.8253 20.7065C10.8253 20.7065 10.8253 20.7065 10.8253 20.7065C10.8253 20.7065 10.8253 20.7065 10.8253 20.7065C10.8253 20.7066 10.8253 20.7065 10.8253 20.7065C10.8252 20.7066 10.8253 20.7065 10.8253 20.7066C10.8252 20.7066 10.8253 20.7066 10.8252 20.7066C10.8252 20.7066 10.8252 20.7066 10.8252 20.7066C10.8252 20.7066 10.8252 20.7066 10.8252 20.7066L12.2395 22.1208C12.2394 22.1208 12.2395 22.1208 12.2395 22.1208C12.2395 22.1208 12.2395 22.1208 12.2395 22.1208C12.2395 22.1208 12.2395 22.1208 12.2395 22.1208C12.2395 22.1208 12.2395 22.1208 12.2395 22.1208C12.2395 22.1208 12.2395 22.1208 12.2395 22.1208L12.2395 22.1208C12.2395 22.1208 12.2395 22.1208 12.2395 22.1208C12.2395 22.1207 12.2394 22.1208 12.2395 22.1208C12.2395 22.1208 12.2395 22.1208 12.2395 22.1207C12.2395 22.1207 12.2395 22.1207 12.2395 22.1207C12.2395 22.1207 12.2395 22.1207 12.2395 22.1207C12.2395 22.1207 12.2395 22.1207 12.2395 22.1207C12.2395 22.1207 12.2395 22.1207 12.2395 22.1207C12.2395 22.1207 12.2395 22.1207 12.2395 22.1207C12.2395 22.1207 12.2395 22.1207 12.2395 22.1207C12.2395 22.1207 12.2395 22.1207 12.2395 22.1207C12.2395 22.1207 12.2395 22.1207 12.2395 22.1207C12.2395 22.1207 12.2395 22.1207 12.2395 22.1207C12.2395 22.1207 12.2395 22.1207 12.2395 22.1207C12.2395 22.1207 12.2395 22.1207 12.2395 22.1207C12.2395 22.1207 12.2395 22.1207 12.2395 22.1207C12.2395 22.1207 12.2395 22.1207 12.2395 22.1207V22.1207C12.2395 22.1207 12.2395 22.1207 12.2395 22.1207C12.2395 22.1207 12.2395 22.1207 12.2395 22.1207C12.2395 22.1207 12.2395 22.1207 12.2395 22.1207C12.2395 22.1207 12.2395 22.1207 12.2395 22.1207C12.2395 22.1207 12.2395 22.1207 12.2395 22.1207C12.2395 22.1207 10.8253 22.1207 10.8253 20.7065C10.8253 20.7065 10.8253 20.7065 10.8253 20.7065C10.8253 20.7065 10.8253 20.7065 10.8253 20.7065C10.8253 20.7065 10.8253 20.7065 10.8253 20.7065C10.8253 20.7065 10.8253 20.7065 10.8253 20.7065C10.8253 20.7065 10.8253 20.7065 10.8253 20.7065C10.8253 20.7065 10.8253 20.7065 10.8253 20.7065C10.8253 20.7065 10.8253 20.7065 10.8253 20.7065C10.8253 20.7065 10.8253 20.7065 10.8253 20.7065L10.8253 20.7065L12.2395 22.1207C12.2395 22.1207 12.2395 22.1207 12.2395 22.1207C12.2395 22.1207 12.2395 22.1207 12.2395 22.1207C12.2395 22.1207 12.2395 22.1207 12.2395 22.1207H12.2395C12.2395 22.1207 12.2395 22.1207 12.2395 22.1207C12.2395 22.1207 12.2395 22.1207 12.2395 22.1207C12.2395 22.1207 12.2395 22.1207 12.2395 22.1207C12.2395 22.1207 12.2395 22.1207 12.2395 22.1207C12.2395 20.7065 10.8253 20.7065 10.8253 20.7065C10.8253 20.7065 10.8253 20.7065 10.8253 20.7065C10.8253 20.7065 10.8253 20.7065 10.8253 20.7065C10.8253 20.7065 10.8253 20.7065 10.8253 20.7065C10.8253 20.7065 10.8253 20.7065 10.8253 20.7065C10.8253 20.7065 10.8253 20.7065 10.8253 20.7065C10.8253 20.7065 10.8253 20.7065 10.8253 20.7065C10.8253 20.7065 10.8253 20.7065 10.8253 20.7065C10.8253 20.7065 10.8254 20.7064 10.8253 20.7065C10.8253 20.7065 10.8253 20.7065 10.8253 20.7065C10.8253 20.7065 10.8253 20.7065 10.8253 20.7065L10.8253 20.7065C10.8253 20.7065 10.8253 20.7065 10.8253 20.7065C10.8253 20.7065 10.8253 20.7065 10.8253 20.7065C10.8253 20.7065 10.8253 20.7065 10.8253 20.7065C10.8253 20.7066 10.8253 20.7066 10.8252 20.7066C10.8252 20.7066 10.8252 20.7066 10.8252 20.7066C10.8252 20.7066 10.8252 20.7066 10.8252 20.7066C10.8252 20.7066 10.8252 20.7066 10.8252 20.7066C10.8252 20.7066 10.8252 20.7066 10.8252 20.7066C10.8252 20.7066 12.2395 22.1208 12.2395 22.1208C12.2395 22.1208 12.2395 22.1208 12.2395 22.1208C12.2395 22.1208 12.2395 22.1208 12.2395 22.1208C12.2395 22.1208 12.2395 22.1208 12.2395 22.1208C12.2395 22.1208 12.2395 22.1208 12.2395 22.1208C12.2395 22.1208 12.2395 22.1208 12.2395 22.1208C12.2395 22.1208 12.2395 22.1208 12.2395 22.1208C12.2395 22.1208 12.2395 22.1208 12.2395 22.1208C12.2395 22.1208 12.2395 22.1208 12.2395 22.1208C12.2395 22.1208 12.2395 22.1208 12.2395 22.1208C12.2395 22.1207 12.2395 22.1208 12.2395 22.1208C12.2395 22.1207 12.2395 22.1207 12.2395 22.1207C12.2395 22.1207 12.2395 22.1207 12.2395 22.1207L10.8253 20.7065ZM10.8253 20.7065C10.8325 20.6993 10.6503 20.8619 10.5711 21.138C10.4977 21.3942 10.5467 21.6045 10.5715 21.6903C10.5978 21.782 10.6317 21.8489 10.6448 21.8743C10.6612 21.9059 10.6759 21.9301 10.6839 21.9428C10.6997 21.9681 10.7132 21.9872 10.7175 21.9933C10.7236 22.0019 10.7286 22.0086 10.7313 22.0123C10.7403 22.0244 10.749 22.0355 10.7522 22.0396C10.7621 22.0521 10.7787 22.0732 10.8079 22.1098C10.8672 22.1843 10.9848 22.3318 11.2191 22.6246L12.7809 21.3754C12.5467 21.0825 12.4305 20.9369 12.373 20.8647C12.3438 20.828 12.3314 20.8122 12.3268 20.8063C12.3228 20.8012 12.3279 20.8077 12.3351 20.8174C12.3374 20.8205 12.3421 20.8268 12.3479 20.835C12.3521 20.8408 12.3654 20.8596 12.3811 20.8848C12.389 20.8974 12.4037 20.9216 12.4201 20.9531C12.4332 20.9784 12.467 21.0453 12.4934 21.1369C12.5181 21.2227 12.5671 21.433 12.4937 21.6892C12.4145 21.9653 12.2323 22.1279 12.2395 22.1207L10.8253 20.7065ZM11.2191 22.6246C11.4534 22.9176 11.5706 23.064 11.6292 23.1372C11.6587 23.1741 11.673 23.1919 11.68 23.2007C11.6842 23.2059 11.684 23.2057 11.6827 23.2041C11.6821 23.2034 11.6806 23.2015 11.6787 23.199C11.6775 23.1975 11.6721 23.1905 11.6653 23.1814C11.662 23.1769 11.6549 23.1673 11.6463 23.1548C11.6404 23.1464 11.6193 23.1159 11.5962 23.0746C11.5844 23.0535 11.5627 23.0133 11.5413 22.9601C11.522 22.9124 11.4842 22.8094 11.4723 22.6722C11.4584 22.5126 11.481 22.3192 11.5795 22.1279C11.6618 21.9681 11.7757 21.8643 11.7614 21.8786L13.1756 23.2928C13.1613 23.3071 13.2753 23.2033 13.3576 23.0435C13.4561 22.8522 13.4786 22.6588 13.4648 22.4992C13.4444 22.2651 13.3424 22.0995 13.3408 22.0968C13.3177 22.0554 13.2965 22.0249 13.2907 22.0165C13.282 22.0039 13.2749 21.9942 13.2715 21.9897C13.2646 21.9804 13.2591 21.9732 13.2576 21.9714C13.2554 21.9685 13.2536 21.9662 13.2526 21.965C13.2495 21.961 13.2456 21.9562 13.2425 21.9523C13.2349 21.9428 13.2199 21.924 13.1908 21.8877C13.1322 21.8145 13.0151 21.6681 12.7809 21.3754L11.2191 22.6246ZM11.7614 21.8786C11.7614 21.8786 11.7614 21.8786 11.7614 21.8786C11.7614 21.8786 11.7614 21.8786 11.7614 21.8786C11.7614 21.8786 11.7614 21.8786 11.7614 21.8786C11.7614 21.8786 11.7614 21.8786 11.7614 21.8786C11.7614 21.8786 11.7614 21.8786 11.7614 21.8786C11.7614 21.8786 11.7614 21.8786 11.7614 21.8786C11.7614 21.8786 11.7614 21.8786 11.7614 21.8786C11.7614 21.8786 11.7614 21.8786 11.7614 21.8786C11.7614 21.8786 11.7614 21.8786 11.7614 21.8786C11.7614 21.8786 11.7614 21.8786 11.7614 21.8786C11.7614 21.8786 11.7614 21.8786 11.7614 21.8786C11.7613 21.8787 11.7615 21.8785 11.7614 21.8786C11.7614 21.8786 11.7614 21.8786 11.7614 21.8786C11.7614 21.8786 11.7614 21.8786 11.7614 21.8786C11.7614 21.8786 11.7614 21.8786 11.7614 21.8786C11.7614 21.8786 11.7614 21.8786 11.7614 21.8786C11.7614 21.8786 11.7614 21.8786 11.7614 21.8786L11.7614 21.8786C11.7614 21.8786 11.7614 21.8786 11.7614 21.8786C11.7614 21.8786 11.7614 21.8786 11.7614 21.8786H11.7614C11.7614 21.8786 11.7614 21.8786 11.7614 21.8786C11.7614 21.8786 11.7614 21.8786 11.7614 21.8786C11.7614 21.8786 11.7614 21.8786 11.7614 21.8786C11.7614 21.8786 11.7614 21.8786 11.7614 21.8786C11.7614 21.8786 11.7614 21.8786 11.7614 21.8786C11.7614 21.8786 11.7614 21.8786 11.7614 21.8786H11.7614C11.7614 21.8786 11.7614 21.8786 11.7614 21.8786C13.1756 21.8786 13.1756 23.2928 13.1756 23.2928C13.1756 23.2928 13.1756 23.2928 13.1756 23.2928C13.1756 23.2928 13.1756 23.2928 13.1756 23.2928C13.1756 23.2928 13.1756 23.2928 13.1756 23.2928H13.1756C13.1756 23.2928 13.1756 23.2928 13.1756 23.2928C13.1756 23.2928 13.1756 23.2928 13.1756 23.2928C13.1756 23.2928 13.1756 23.2928 13.1756 23.2928C13.1756 23.2928 13.1756 23.2928 13.1756 23.2928C13.1756 23.2928 13.1756 23.2928 13.1756 23.2928C13.1756 23.2928 13.1756 23.2928 13.1756 23.2928C13.1756 23.2928 13.1756 23.2928 13.1756 23.2928C13.1756 23.2928 13.1756 23.2928 13.1756 23.2928C13.1756 23.2928 13.1756 23.2928 13.1756 23.2928C13.1756 23.2928 13.1756 23.2928 13.1756 23.2928C13.1766 23.2918 13.1747 23.2938 13.1756 23.2928C13.1756 23.2928 13.1756 23.2928 13.1756 23.2928C13.1756 23.2928 13.1756 23.2928 13.1756 23.2928C13.1756 23.2928 13.1756 23.2928 13.1756 23.2928C13.1756 23.2928 13.1756 23.2928 13.1756 23.2928H13.1756C13.1756 23.2928 13.1756 23.2928 13.1756 23.2928C13.1756 23.2928 13.1756 23.2928 13.1756 23.2928C13.1757 23.2928 13.1756 23.2928 13.1756 23.2928C13.1756 23.2928 13.1756 23.2928 13.1756 23.2928C13.1756 23.2928 13.1756 23.2928 13.1756 23.2928H13.1756C13.1756 23.2928 13.1756 23.2928 13.1756 23.2928C13.1756 23.2928 13.1757 23.2928 13.1756 23.2928H13.1757C13.1757 23.2928 13.1757 23.2928 13.1757 23.2928C13.1757 23.2928 13.1757 23.2928 13.1757 23.2928C13.1757 23.2928 13.1757 23.2928 13.1757 23.2928V23.2928C13.1757 23.2928 13.1757 23.2928 13.1757 23.2928C13.1757 23.2928 13.1757 23.2928 13.1757 23.2928C13.1757 23.2928 13.1757 21.8786 11.7614 21.8786C11.7614 21.8786 11.7614 21.8786 11.7614 21.8786C11.7614 21.8786 11.7614 21.8786 11.7614 21.8786C11.7614 21.8786 11.7614 21.8786 11.7614 21.8786C11.7614 21.8786 11.7614 21.8786 11.7614 21.8786C11.7614 21.8786 11.7614 21.8786 11.7614 21.8786C11.7614 21.8786 11.7614 21.8786 11.7614 21.8786C11.7614 21.8786 11.7614 21.8786 11.7614 21.8786C11.7614 21.8786 11.7614 21.8786 11.7614 21.8786C11.7614 21.8786 11.7614 21.8786 11.7614 21.8786C11.7614 21.8786 11.7614 21.8786 11.7614 21.8786C11.7614 21.8786 11.7614 21.8786 11.7614 21.8786C11.7614 21.8786 11.7614 21.8786 11.7614 21.8786C11.7614 21.8786 11.7614 21.8786 11.7614 21.8786L13.1756 23.2928C13.1756 23.2928 13.1756 23.2928 13.1756 23.2928C13.1756 23.2928 13.1756 23.2928 13.1756 23.2928C13.1756 23.2928 13.1756 23.2928 13.1756 23.2928C13.1756 23.2928 13.1756 23.2928 13.1756 23.2928C13.1756 23.2928 13.1756 23.2928 13.1756 23.2928C13.1756 23.2928 13.1756 23.2928 13.1756 23.2928C13.1756 23.2928 13.1756 23.2928 13.1756 23.2928C13.1756 23.2928 13.1756 23.2928 13.1756 23.2928C13.1756 23.2928 13.1756 23.2928 13.1756 23.2928C13.1756 23.2928 13.1756 23.2928 13.1756 23.2928C13.1756 23.2928 13.1756 23.2928 13.1756 23.2928C13.1757 23.2927 13.1756 23.2929 13.1756 23.2928C13.1756 23.2928 13.1756 23.2928 13.1756 23.2928C13.1756 23.2928 13.1756 23.2928 13.1756 23.2928C13.1756 23.2928 13.1756 23.2928 13.1756 23.2928C13.1756 23.2928 13.1756 23.2928 13.1756 23.2928C13.1756 23.2928 13.1756 23.2928 13.1756 23.2928L13.1756 23.2928C13.1756 23.2928 13.1756 23.2928 13.1756 23.2928C13.1756 23.2928 13.1756 23.2928 13.1756 23.2928H13.1756C13.1756 23.2928 13.1756 23.2928 13.1756 23.2928C13.1756 23.2928 13.1756 23.2928 13.1756 23.2928C13.1757 23.2928 13.1756 23.2928 13.1756 23.2928C13.1757 23.2928 13.1756 23.2928 13.1757 23.2928C13.1757 23.2928 13.1757 23.2928 13.1757 23.2928C13.1757 23.2928 13.1757 23.2928 13.1757 23.2928H13.1757C13.1757 23.2928 13.1757 23.2928 13.1756 23.2928C11.7614 23.2928 11.7614 21.8786 11.7614 21.8786C11.7614 21.8786 11.7614 21.8786 11.7614 21.8786C11.7614 21.8786 11.7614 21.8786 11.7614 21.8786C11.7614 21.8786 11.7614 21.8786 11.7614 21.8786H11.7614C11.7614 21.8786 11.7614 21.8786 11.7614 21.8786C11.7614 21.8786 11.7614 21.8786 11.7614 21.8786C11.7614 21.8786 11.7614 21.8786 11.7614 21.8786C11.7614 21.8786 11.7614 21.8786 11.7614 21.8786C11.7614 21.8786 11.7614 21.8786 11.7614 21.8786C11.7614 21.8786 11.7614 21.8786 11.7614 21.8786C11.7614 21.8786 11.7614 21.8786 11.7614 21.8786C11.7614 21.8786 11.7614 21.8786 11.7614 21.8786C11.7614 21.8786 11.7614 21.8786 11.7614 21.8786C11.7614 21.8786 11.7614 21.8786 11.7614 21.8786C11.7604 21.8796 11.7624 21.8776 11.7614 21.8786C11.7614 21.8786 11.7614 21.8786 11.7614 21.8786C11.7614 21.8786 11.7614 21.8786 11.7614 21.8786C11.7614 21.8786 11.7614 21.8786 11.7614 21.8786C11.7614 21.8786 11.7614 21.8786 11.7614 21.8786H11.7614C11.7614 21.8786 11.7614 21.8786 11.7614 21.8786C11.7614 21.8786 11.7614 21.8786 11.7614 21.8786C11.7614 21.8786 11.7614 21.8786 11.7614 21.8786C11.7614 21.8786 11.7614 21.8786 11.7614 21.8786C11.7614 21.8786 11.7614 21.8786 11.7614 21.8786H11.7614C11.7614 21.8786 11.7614 21.8786 11.7614 21.8786C11.7614 21.8786 11.7614 21.8786 11.7614 21.8786H11.7614C11.7614 21.8786 11.7614 21.8786 11.7614 21.8786C11.7614 21.8786 11.7614 21.8786 11.7614 21.8786C11.7614 21.8786 11.7614 21.8786 11.7614 21.8786V21.8786C11.7614 21.8786 11.7614 21.8786 11.7614 21.8786C11.7614 21.8786 11.7614 21.8786 11.7614 21.8786C11.7614 21.8786 11.7614 23.2928 13.1756 23.2928C13.1756 23.2928 13.1756 23.2928 13.1756 23.2928C13.1756 23.2928 13.1756 23.2928 13.1756 23.2928C13.1756 23.2928 13.1756 23.2928 13.1756 23.2928C13.1756 23.2928 13.1756 23.2928 13.1756 23.2928C13.1756 23.2928 13.1756 23.2928 13.1756 23.2928C13.1756 23.2928 13.1756 23.2928 13.1756 23.2928C13.1756 23.2928 13.1756 23.2928 13.1756 23.2928C13.1756 23.2928 13.1756 23.2928 13.1756 23.2928C13.1756 23.2928 13.1756 23.2928 13.1756 23.2928C13.1756 23.2928 13.1756 23.2928 13.1756 23.2928C13.1756 23.2928 13.1756 23.2928 13.1756 23.2928C13.1756 23.2928 13.1756 23.2928 13.1756 23.2928C13.1756 23.2928 13.1756 23.2928 13.1756 23.2928L11.7614 21.8786ZM12.0213 21.6913C11.9606 21.7216 11.9167 21.7516 11.9057 21.7591C11.8876 21.7714 11.8736 21.7819 11.8658 21.7877C11.85 21.7996 11.8379 21.8096 11.8319 21.8145C11.8249 21.8203 11.8182 21.8259 11.8119 21.8314C11.8087 21.8342 11.8041 21.8382 11.7986 21.8431C11.7976 21.844 11.7806 21.8592 11.7604 21.8794L13.1746 23.2936C13.1545 23.3137 13.1375 23.3289 13.1365 23.3297C13.1311 23.3346 13.1266 23.3386 13.1235 23.3413C13.1173 23.3466 13.1109 23.3521 13.1041 23.3577C13.0983 23.3625 13.0864 23.3722 13.0708 23.384C13.0631 23.3898 13.0492 23.4001 13.0312 23.4124C13.022 23.4186 13.0086 23.4275 12.9921 23.4377C12.977 23.447 12.9503 23.4628 12.9157 23.4801L12.0213 21.6913ZM11.7604 21.8794C11.7836 21.8562 11.8317 21.8101 11.9009 21.7626C11.9221 21.7479 12.0117 21.6858 12.1423 21.6409C12.1789 21.6283 12.3928 21.5511 12.6664 21.6066C12.8309 21.64 13.0609 21.7321 13.2424 21.9547C13.4236 22.177 13.4674 22.4201 13.4674 22.5866C13.4674 22.8646 13.3502 23.0581 13.3297 23.0929C13.2886 23.163 13.2474 23.2134 13.2237 23.2407C13.1741 23.2981 13.1276 23.3387 13.098 23.3627C13.0344 23.4143 12.9714 23.4526 12.9147 23.4809L12.0203 21.6921C11.9636 21.7204 11.9004 21.7588 11.8368 21.8105C11.8072 21.8345 11.7607 21.875 11.711 21.9324C11.6874 21.9598 11.6462 22.0102 11.605 22.0803C11.5846 22.1151 11.4674 22.3086 11.4674 22.5866C11.4674 22.7532 11.5111 22.9962 11.6923 23.2185C11.8738 23.4411 12.1038 23.5332 12.2683 23.5666C12.5419 23.6222 12.7558 23.5449 12.7925 23.5323C12.9231 23.4874 13.0127 23.4253 13.0339 23.4106C13.1031 23.3631 13.1513 23.3169 13.1746 23.2936L11.7604 21.8794ZM13.1746 23.2936C13.1563 23.312 13.1408 23.326 13.1316 23.3342C13.1219 23.3427 13.114 23.3495 13.1092 23.3534C13.1005 23.3607 13.0935 23.3663 13.0934 23.3664C13.0897 23.3693 13.0963 23.3641 13.1008 23.3604L11.8396 21.8082C11.8425 21.8058 11.8479 21.8015 11.8434 21.8052C11.8428 21.8056 11.8354 21.8115 11.8265 21.819C11.8216 21.8231 11.8135 21.8299 11.8037 21.8386C11.7944 21.8468 11.7789 21.8609 11.7604 21.8794L13.1746 23.2936ZM13.0859 23.3723C13.0858 23.3724 13.0884 23.3703 13.0937 23.3663L11.8816 21.7755C11.87 21.7843 11.861 21.7912 11.8546 21.7963L13.0859 23.3723ZM13.0959 23.3646C13.1052 23.3575 13.1252 23.3424 13.1554 23.3205L11.9809 21.7017C11.9375 21.7332 11.9034 21.7587 11.8793 21.7772L13.0959 23.3646ZM13.1568 23.3195C13.2165 23.276 13.3145 23.2071 13.4474 23.1208L12.3584 21.4432C12.1944 21.5497 12.0669 21.639 11.9794 21.7027L13.1568 23.3195ZM13.4472 23.1209C13.713 22.9485 14.1125 22.7112 14.6201 22.4723L13.7685 20.6627C13.1665 20.946 12.6879 21.2295 12.3587 21.4431L13.4472 23.1209ZM14.6201 22.4723C15.6434 21.9908 17.0521 21.5278 18.6667 21.5278V19.5278C16.6751 19.5278 14.9717 20.0966 13.7686 20.6627L14.6201 22.4723ZM19.6667 20.5278V19.0278H17.6667V20.5278H19.6667Z" fill="#F1B11D" mask="url(#path-1-inside-1_2917_2715)"/>
<path d="M2 16.5C5.82356 14.2783 5.82356 11.647 2.95589 8.5" stroke="#F1B11D" stroke-width="1.5" stroke-linejoin="round"/>
<path d="M22 16.5C18.1764 14.2783 18.1764 11.647 21.0441 8.5" stroke="#F1B11D" stroke-width="1.5" stroke-linejoin="round"/>
</svg>
